<svg width="12" height="12" viewBox="0 0 12 12" fill="none" xmlns="http://www.w3.org/2000/svg">
<g id="icon-tiny-line-blockchain" clip-path="url(#clip0_655_21822)">
<path id="Vector" d="M10.67 0H9.34C8.6 0 8.01 0.6 8.01 1.33V1.5H4.01V1.33C4.01 0.59 3.41 0 2.68 0H1.35C0.6 0 0 0.6 0 1.33V2.66C0 3.4 0.6 3.99 1.33 3.99H1.52V7.99H1.33C0.59 7.99 0 8.59 0 9.32V10.65C0 11.39 0.6 11.98 1.33 11.98H2.66C3.4 11.98 3.99 11.38 3.99 10.65V10.48H7.99V10.65C7.99 11.39 8.59 11.98 9.32 11.98H10.65C11.39 11.98 11.98 11.38 11.98 10.65V9.32C11.98 8.58 11.38 7.99 10.65 7.99H10.48V3.99H10.65C11.39 3.99 11.98 3.39 11.98 2.66V1.33C11.98 0.59 11.38 0 10.65 0H10.67ZM1 2.67V1.34C1 1.16 1.15 1.01 1.33 1.01H2.66C2.84 1.01 2.99 1.16 2.99 1.34V2.67C2.99 2.85 2.84 3 2.66 3H1.33C1.15 3 1 2.85 1 2.67ZM3 10V10.67C3 10.85 2.85 11 2.67 11H1.34C1.16 11 1.01 10.85 1.01 10.67V9.34C1.01 9.16 1.16 9.01 1.34 9.01H2.67C2.85 9.01 3 9.16 3 9.34V10.01V10ZM11 9.33V10.66C11 10.84 10.85 10.99 10.67 10.99H9.34C9.16 10.99 9.01 10.84 9.01 10.66V9.33C9.01 9.15 9.16 9 9.34 9H10.67C10.85 9 11 9.15 11 9.33ZM9.5 8H9.33C8.59 8 8 8.6 8 9.33V9.5H4V9.33C4 8.59 3.4 8 2.67 8H2.53V4H2.67C3.41 4 4 3.4 4 2.67V2.5H8V2.67C8 3.41 8.6 4 9.33 4H9.5V8ZM11 2V2.67C11 2.85 10.85 3 10.67 3H9.34C9.16 3 9.01 2.85 9.01 2.67V1.34C9.01 1.16 9.16 1.01 9.34 1.01H10.67C10.85 1.01 11 1.16 11 1.34V2.01V2Z" fill="#8B8EA0"/>
</g>
<defs>
<clipPath id="clip0_655_21822">
<rect width="12" height="12" fill="white"/>
</clipPath>
</defs>
</svg>
