<svg xmlns="http://www.w3.org/2000/svg" width="12" height="12" fill="none">
  <g clip-path="url(#a)">
    <path d="M11.05 2.626 6.158.368a.376.376 0 0 0-.316 0L.951 2.626a.376.376 0 0 0-.219.342v6.397a.376.376 0 0 0 .219.343l4.891 2.257a.377.377 0 0 0 .316 0l4.892-2.257a.376.376 0 0 0 .218-.343V2.968a.376.376 0 0 0-.218-.342ZM6 1.125l3.993 1.843L6 4.812 2.008 2.968 6 1.125Zm-4.515 2.43 4.14 1.912v5.569l-4.14-1.912V3.555Zm4.892 7.481V5.467l4.139-1.912v5.57l-4.14 1.911Z" fill="#8B8EA0"/>
  </g>
  <defs>
    <clipPath id="a">
      <path fill="#fff" d="M0 0h12v12H0z"/>
    </clipPath>
  </defs>
</svg>