<svg width="12" height="13" viewBox="0 0 12 13" fill="none" xmlns="http://www.w3.org/2000/svg">
<g id="bullseye-with-target-symbol-svgrepo-com 1" clip-path="url(#clip0_2218_25455)">
<g id="Group">
<g id="Group_2">
<path id="Vector" d="M10.9394 5.77754H12C11.8412 4.43692 11.2421 3.19637 10.2729 2.22711C9.30364 1.25788 8.06312 0.658769 6.72247 0.5V1.56065C8.89786 1.87748 10.6225 3.60215 10.9394 5.77754Z" fill="#8B8EA0"/>
<path id="Vector_2" d="M5.27754 1.56065V0.5C3.93692 0.658769 2.69637 1.25788 1.72711 2.22711C0.757877 3.19637 0.158769 4.43689 0 5.77754H1.06065C1.37748 3.60215 3.10215 1.87748 5.27754 1.56065Z" fill="#8B8EA0"/>
<path id="Vector_3" d="M6.72247 11.4395V12.5002C8.06306 12.3414 9.30364 11.7423 10.2729 10.7731C11.2421 9.80383 11.8412 8.5633 12 7.22266H10.9394C10.6225 9.39804 8.89786 11.1227 6.72247 11.4395Z" fill="#8B8EA0"/>
<path id="Vector_4" d="M1.06065 7.22266H0C0.158769 8.56324 0.757877 9.80383 1.72711 10.7731C2.69637 11.7423 3.93689 12.3414 5.27754 12.5002V11.4395C3.10215 11.1227 1.37748 9.39804 1.06065 7.22266Z" fill="#8B8EA0"/>
<path id="Vector_5" d="M3.33755 5.77685C3.59331 4.83544 4.33611 4.09264 5.27752 3.83688V2.75879C3.75528 3.05227 2.55294 4.2546 2.25946 5.77685H3.33755Z" fill="#8B8EA0"/>
<path id="Vector_6" d="M3.33755 7.22266H2.25946C2.55294 8.7449 3.75528 9.94724 5.27752 10.2407V9.16263C4.33611 8.9069 3.59328 8.16407 3.33755 7.22266Z" fill="#8B8EA0"/>
<path id="Vector_7" d="M8.66244 7.22266C8.40669 8.16407 7.66389 8.90684 6.72247 9.16263V10.2407C8.24472 9.94724 9.44706 8.7449 9.74053 7.22266H8.66244Z" fill="#8B8EA0"/>
<path id="Vector_8" d="M8.66244 5.77685H9.74053C9.44706 4.2546 8.24472 3.05227 6.72247 2.75879V3.83688C7.66389 4.0926 8.40672 4.83544 8.66244 5.77685Z" fill="#8B8EA0"/>
<path id="Vector_9" d="M6.29295 5.086V0.5H5.70705V5.086C5.14545 5.20215 4.70218 5.64545 4.586 6.20705H0V6.79295H4.586C4.70215 7.35455 5.14545 7.79782 5.70705 7.91403V12.5H6.29295V7.914C6.85455 7.79785 7.29782 7.35455 7.41403 6.79289H12V6.20698H7.414C7.29785 5.64545 6.85455 5.20215 6.29295 5.086Z" fill="#8B8EA0"/>
</g>
</g>
</g>
<defs>
<clipPath id="clip0_2218_25455">
<rect width="12" height="12" fill="white" transform="translate(0 0.5)"/>
</clipPath>
</defs>
</svg>
