<svg xmlns="http://www.w3.org/2000/svg" width="12" height="12" fill="none">
  <g clip-path="url(#a)">
    <path d="M.6 5.63c0-2.037 0-3.055.632-3.688.633-.632 1.651-.632 3.688-.632h2.16c2.036 0 3.054 0 3.687.632.633.633.633 1.651.633 3.688v1.08c0 2.036 0 3.054-.633 3.687s-1.651.633-3.687.633H4.92c-2.037 0-3.055 0-3.688-.633C.6 9.764.6 8.746.6 6.71V5.63Z" stroke="#8B8EA0" stroke-width=".81"/>
    <path d="M3.299 1.31V.5M8.7 1.31V.5M.87 4.01h10.259" stroke="#8B8EA0" stroke-width=".81" stroke-linecap="round"/>
    <path d="M9.24 8.33a.54.54 0 1 1-1.08 0 .54.54 0 0 1 1.08 0ZM9.24 6.17a.54.54 0 1 1-1.08 0 .54.54 0 0 1 1.08 0ZM6.539 8.33a.54.54 0 1 1-1.08 0 .54.54 0 0 1 1.08 0ZM6.539 6.17a.54.54 0 1 1-1.08 0 .54.54 0 0 1 1.08 0ZM3.84 8.33a.54.54 0 1 1-1.08 0 .54.54 0 0 1 1.08 0ZM3.84 6.17a.54.54 0 1 1-1.08 0 .54.54 0 0 1 1.08 0Z" fill="#8B8EA0"/>
  </g>
  <defs>
    <clipPath id="a">
      <path fill="#fff" d="M0 0h12v12H0z"/>
    </clipPath>
  </defs>
</svg>