<svg width="30" height="30" viewBox="0 0 30 30" fill="none" xmlns="http://www.w3.org/2000/svg">
<g id="icon-community">
<g id="icon-community_2">
<path id="Vector" d="M2.44564 18.0146C2.27314 18.0146 2.10814 17.8946 2.07064 17.7146C1.88314 16.8296 1.78564 15.9146 1.78564 14.9996C1.78564 12.7871 2.34814 10.5971 3.40564 8.67707C3.51064 8.48957 3.73564 8.42207 3.92314 8.52707C4.11064 8.62457 4.17064 8.85707 4.07314 9.04457C3.07564 10.8596 2.54314 12.9221 2.54314 15.0071C2.54314 15.8696 2.63314 16.7321 2.80564 17.5646C2.85064 17.7671 2.71564 17.9696 2.51314 18.0146C2.48314 18.0146 2.46064 18.0221 2.43064 18.0221L2.44564 18.0146Z" fill="#DDF6FD"/>
<path id="Vector_2" d="M10.035 27.1568C9.98249 27.1568 9.93749 27.1493 9.89249 27.1268C7.32749 26.0618 5.12249 24.1568 3.68249 21.7793C3.56999 21.5993 3.62999 21.3668 3.80999 21.2543C3.98999 21.1418 4.22249 21.2018 4.33499 21.3818C5.69249 23.6318 7.76999 25.4168 10.185 26.4218C10.38 26.5043 10.47 26.7218 10.3875 26.9168C10.3275 27.0668 10.185 27.1493 10.035 27.1493V27.1568Z" fill="#DDF6FD"/>
<path id="Vector_3" d="M6.65902 5.6775C6.55402 5.6775 6.44152 5.6325 6.36652 5.5425C6.23152 5.385 6.24652 5.145 6.41152 5.01C8.78152 2.985 11.804 1.875 14.924 1.875C15.134 1.875 15.3065 2.0475 15.3065 2.2575C15.3065 2.4675 15.134 2.64 14.924 2.64C11.984 2.64 9.13402 3.69 6.89902 5.595C6.82402 5.655 6.74152 5.685 6.65152 5.685L6.65902 5.6775Z" fill="#9DE5F9"/>
<path id="Vector_4" d="M26.0551 20.925C25.9951 20.925 25.9276 20.91 25.8676 20.88C25.6801 20.775 25.6201 20.55 25.7176 20.3625C26.7151 18.5475 27.2476 16.485 27.2476 14.4C27.2476 13.5375 27.1576 12.675 26.9851 11.8425C26.9401 11.64 27.0751 11.4375 27.2776 11.3925C27.4801 11.3475 27.6826 11.4825 27.7276 11.685C27.9151 12.5775 28.0126 13.485 28.0126 14.4C28.0126 16.6125 27.4501 18.8025 26.3926 20.73C26.3251 20.8575 26.1901 20.925 26.0626 20.925H26.0551Z" fill="#80D4FF"/>
<path id="Vector_5" d="M25.8074 8.20461C25.6799 8.20461 25.5524 8.13711 25.4849 8.01711C24.1274 5.77461 22.0499 3.98211 19.6349 2.97711C19.4399 2.89461 19.3499 2.67711 19.4324 2.48211C19.5149 2.28711 19.7399 2.19711 19.9274 2.27961C22.4924 3.34461 24.6974 5.24961 26.1374 7.62711C26.2424 7.80711 26.1899 8.03961 26.0099 8.15211C25.9499 8.18961 25.8824 8.20461 25.8149 8.20461H25.8074Z" fill="#80D4FF"/>
<path id="Vector_6" d="M14.8874 27.5333C14.6774 27.5333 14.5049 27.3608 14.5049 27.1508C14.5049 26.9408 14.6774 26.7683 14.8874 26.7683C17.8274 26.7683 20.6774 25.7183 22.9049 23.8133C23.0624 23.6783 23.3024 23.7008 23.4374 23.8583C23.5724 24.0158 23.5574 24.2558 23.3924 24.3908C21.0224 26.4158 17.9999 27.5258 14.8799 27.5258L14.8874 27.5333Z" fill="#9DE5F9"/>
<g id="Group">
<path id="Vector_7" d="M11.5356 11.543C11.5356 10.7145 10.8641 10.043 10.0356 10.043C9.20722 10.043 8.53564 10.7145 8.53564 11.543C8.53564 12.3714 9.20722 13.043 10.0356 13.043C10.8641 13.043 11.5356 12.3714 11.5356 11.543Z" fill="#88BAFF"/>
<path id="Vector_8" d="M13.4106 17.5276V17.8351C13.4106 18.2251 13.0956 18.5401 12.7056 18.5401H7.35814C6.97564 18.5401 6.66064 18.2251 6.66064 17.8351V17.3851C6.66064 15.4126 8.35564 13.8301 10.3656 14.0251C12.1206 14.1901 13.4106 15.7651 13.4106 17.5276Z" fill="#88BAFF"/>
</g>
<g id="Group_2">
<path id="Vector_9" d="M21.2856 11.543C21.2856 10.7145 20.6141 10.043 19.7856 10.043C18.9572 10.043 18.2856 10.7145 18.2856 11.543C18.2856 12.3714 18.9572 13.043 19.7856 13.043C20.6141 13.043 21.2856 12.3714 21.2856 11.543Z" fill="#B1EAFA"/>
<path id="Vector_10" d="M23.1606 17.5276V17.8351C23.1606 18.2251 22.8456 18.5401 22.4556 18.5401H17.1081C16.7256 18.5401 16.4106 18.2251 16.4106 17.8351V17.3851C16.4106 15.4126 18.1056 13.8301 20.1156 14.0251C21.8706 14.1901 23.1606 15.7651 23.1606 17.5276Z" fill="#B1EAFA"/>
</g>
<path id="Vector_11" d="M14.9106 4.5C16.1533 4.5 17.1606 3.49264 17.1606 2.25C17.1606 1.00736 16.1533 0 14.9106 0C13.668 0 12.6606 1.00736 12.6606 2.25C12.6606 3.49264 13.668 4.5 14.9106 4.5Z" fill="#9DE5F9"/>
<path id="Vector_12" d="M3.75 11.1074C4.99264 11.1074 6 10.1001 6 8.85742C6 7.61478 4.99264 6.60742 3.75 6.60742C2.50736 6.60742 1.5 7.61478 1.5 8.85742C1.5 10.1001 2.50736 11.1074 3.75 11.1074Z" fill="#DDF6FD"/>
<path id="Vector_13" d="M4.00488 23.8359C5.24752 23.8359 6.25488 22.8286 6.25488 21.5859C6.25488 20.3433 5.24752 19.3359 4.00488 19.3359C2.76224 19.3359 1.75488 20.3433 1.75488 21.5859C1.75488 22.8286 2.76224 23.8359 4.00488 23.8359Z" fill="#DDF6FD"/>
<path id="Vector_14" d="M14.9106 29.6855C16.1533 29.6855 17.1606 28.6782 17.1606 27.4355C17.1606 26.1929 16.1533 25.1855 14.9106 25.1855C13.668 25.1855 12.6606 26.1929 12.6606 27.4355C12.6606 28.6782 13.668 29.6855 14.9106 29.6855Z" fill="#9DE5F9"/>
<path id="Vector_15" d="M26.0552 22.8008C27.2978 22.8008 28.3052 21.7934 28.3052 20.5508C28.3052 19.3081 27.2978 18.3008 26.0552 18.3008C24.8125 18.3008 23.8052 19.3081 23.8052 20.5508C23.8052 21.7934 24.8125 22.8008 26.0552 22.8008Z" fill="#80D4FF"/>
<path id="Vector_16" d="M25.8076 10.0723C27.0503 10.0723 28.0576 9.06491 28.0576 7.82227C28.0576 6.57963 27.0503 5.57227 25.8076 5.57227C24.565 5.57227 23.5576 6.57963 23.5576 7.82227C23.5576 9.06491 24.565 10.0723 25.8076 10.0723Z" fill="#80D4FF"/>
<g id="Group_3">
<g id="Group_4">
<path id="Vector_17" d="M16.4106 13.6953C16.4106 12.8669 15.7391 12.1953 14.9106 12.1953C14.0822 12.1953 13.4106 12.8669 13.4106 13.6953C13.4106 14.5237 14.0822 15.1953 14.9106 15.1953C15.7391 15.1953 16.4106 14.5237 16.4106 13.6953Z" fill="#3486FF"/>
<path id="Vector_18" d="M18.2856 19.6877V19.9952C18.2856 20.3852 17.9706 20.7002 17.5806 20.7002H12.2331C11.8506 20.7002 11.5356 20.3852 11.5356 19.9952V19.5452C11.5356 17.5727 13.2306 15.9902 15.2406 16.1852C16.9956 16.3502 18.2856 17.9252 18.2856 19.6877Z" fill="#3486FF"/>
</g>
<g id="Group_5">
<path id="Vector_19" d="M16.4106 13.6953C16.4106 12.8669 15.7391 12.1953 14.9106 12.1953C14.0822 12.1953 13.4106 12.8669 13.4106 13.6953C13.4106 14.5237 14.0822 15.1953 14.9106 15.1953C15.7391 15.1953 16.4106 14.5237 16.4106 13.6953Z" fill="#4895FF"/>
<path id="Vector_20" d="M18.2856 19.6877V19.9952C18.2856 20.3852 17.9706 20.7002 17.5806 20.7002H12.2331C11.8506 20.7002 11.5356 20.3852 11.5356 19.9952V19.5452C11.5356 17.5727 13.2306 15.9902 15.2406 16.1852C16.9956 16.3502 18.2856 17.9252 18.2856 19.6877Z" fill="#4895FF"/>
</g>
</g>
</g>
</g>
</svg>
