<svg width="19" height="19" viewBox="0 0 19 19" fill="none" xmlns="http://www.w3.org/2000/svg">
<path opacity="0.5" fill-rule="evenodd" clip-rule="evenodd" d="M9.68345 18.652C14.682 18.652 18.7341 14.5999 18.7341 9.60141C18.7341 4.60289 14.682 0.550781 9.68345 0.550781C4.68492 0.550781 0.632812 4.60289 0.632812 9.60141C0.632812 14.5999 4.68492 18.652 9.68345 18.652ZM6.43219 9.34502C6.43219 9.34502 6.16405 8.88918 6.0568 8.66127C5.80206 8.07136 5.80206 7.40101 6.08361 6.82452C6.09058 6.81232 6.09772 6.80024 6.10502 6.78827C6.20823 6.61682 6.33619 6.46936 6.51054 6.35672C6.51124 6.35624 6.51193 6.35576 6.51263 6.35527L9.50238 4.26379L9.50226 4.26399L9.50253 4.26379L9.44248 4.36293L6.43219 9.34502ZM4.85017 10.3238C4.9172 11.3025 5.41326 12.2141 6.19086 12.804L9.50237 15.11C9.50237 15.11 9.5023 15.1099 9.50216 15.1097L9.50253 15.11C9.50253 15.11 7.42446 12.1203 5.68156 9.14392C5.50727 8.83556 5.38661 8.48698 5.33298 8.12499C5.30617 7.96411 5.30617 7.80322 5.33298 7.64234C5.3329 7.64249 5.33282 7.64265 5.33275 7.64281C5.33277 7.64266 5.33279 7.64252 5.33282 7.64238C5.2926 7.72282 5.19875 7.89711 5.19875 7.89711C5.02446 8.2591 4.9038 8.6479 4.83676 9.05011C4.79654 9.47913 4.79654 9.90815 4.85017 10.3238ZM12.9212 10.0423C12.9212 10.0422 12.9212 10.0421 12.9212 10.0421L9.85097 15.11L9.85127 15.1097L9.85112 15.11L12.8543 13.0319C13.0286 12.9113 13.176 12.7504 13.2833 12.5627C13.5514 11.9862 13.5648 11.3158 13.2967 10.7259C13.1894 10.498 12.9213 10.0422 12.9213 10.0422L12.9212 10.0423ZM14.5166 9.05007C14.4495 8.07136 13.9535 7.15969 13.1759 6.56979L9.87951 4.27433L9.86452 4.26379C9.86452 4.26379 9.86457 4.26386 9.86466 4.26399L9.86437 4.26379C9.86437 4.26379 11.9424 7.25354 13.6853 10.2299C13.8596 10.5382 13.9803 10.8868 14.0339 11.2488C14.0607 11.4097 14.0607 11.5706 14.0339 11.7315C14.034 11.7313 14.0341 11.7312 14.0342 11.731C14.0341 11.7312 14.0341 11.7313 14.0341 11.7315C14.0743 11.651 14.1681 11.4767 14.1681 11.4767C14.3424 11.1147 14.4631 10.7259 14.5301 10.3371C14.5362 10.2372 14.5409 10.1387 14.5439 10.0413C14.5548 9.70645 14.5477 9.38228 14.5166 9.05007Z" fill="#8B8EA0"/>
</svg>
