<svg xmlns="http://www.w3.org/2000/svg" width="20" height="20" viewBox="0 0 20 20" fill="none">
  <path fill-rule="evenodd" clip-rule="evenodd" d="M10 7.5C8.61925 7.5 7.5 8.61925 7.5 10C7.5 11.3807 8.61925 12.5 10 12.5C11.3807 12.5 12.5 11.3807 12.5 10C12.5 8.61925 11.3807 7.5 10 7.5ZM9.16667 10C9.16667 9.53975 9.53975 9.16667 10 9.16667C10.4602 9.16667 10.8333 9.53975 10.8333 10C10.8333 10.4602 10.4602 10.8333 10 10.8333C9.53975 10.8333 9.16667 10.4602 9.16667 10Z" fill="white"/>
  <path fill-rule="evenodd" clip-rule="evenodd" d="M18.191 9.40091C16.2843 5.96021 13.1762 4.16699 9.99935 4.16699C6.82249 4.16699 3.71432 5.96021 1.80771 9.40091C1.62132 9.73733 1.61902 10.1521 1.79959 10.49C3.67587 14.0014 6.80168 15.8337 9.99935 15.8337C13.197 15.8337 16.3228 14.0014 18.1991 10.49C18.3797 10.1521 18.3773 9.73733 18.191 9.40091ZM9.99935 14.167C7.55016 14.167 5.03312 12.8107 3.40912 9.95758C5.05653 7.16378 7.56034 5.83366 9.99935 5.83366C12.4383 5.83366 14.9422 7.16378 16.5896 9.95758C14.9656 12.8107 12.4485 14.167 9.99935 14.167Z" fill="white"/>
</svg>