<svg width="19" height="19" viewBox="0 0 19 19" fill="none" xmlns="http://www.w3.org/2000/svg">
<path opacity="0.5" fill-rule="evenodd" clip-rule="evenodd" d="M9.94956 18.652C14.9481 18.652 19.0002 14.5999 19.0002 9.60141C19.0002 4.60289 14.9481 0.550781 9.94956 0.550781C4.95103 0.550781 0.898926 4.60289 0.898926 9.60141C0.898926 14.5999 4.95103 18.652 9.94956 18.652ZM6.42897 4.68952H13.2582V6.0679H15.2005L14.7932 7.44628H14.4486V13.0224C14.6216 13.0224 14.7619 13.1627 14.7619 13.3357V13.7116H14.8246C14.9976 13.7116 15.1378 13.8519 15.1378 14.0249V14.4008H13.2582H12.2558H11.6292V14.0249C11.6292 13.8519 11.7695 13.7116 11.9425 13.7116H12.0051V13.3357C12.0051 13.1842 12.1128 13.0577 12.2558 13.0287V9.95242H12.2459C12.1351 8.72299 11.1019 7.75954 9.84359 7.75954C8.58531 7.75954 7.55205 8.72299 7.44126 9.95242H7.43143V13.0224H7.49408C7.66709 13.0224 7.80735 13.1627 7.80735 13.3357V13.7116H7.87C8.04302 13.7116 8.18327 13.8519 8.18327 14.0249V14.4008H7.43143H6.42897H4.67467V14.0249C4.67467 13.8519 4.81492 13.7116 4.98793 13.7116H5.05059V13.3357C5.05059 13.1627 5.19084 13.0224 5.36386 13.0224V7.44628H5.01926L4.61201 6.0679H6.42897V4.68952Z" fill="#8B8EA0"/>
</svg>
