<svg xmlns="http://www.w3.org/2000/svg" width="18" height="18" viewBox="0 0 18 18" fill="none">
  <path d="M12.8653 8.5H12.2382V2.875C12.2382 1.8375 11.3979 1 10.357 1C9.31601 1 8.47571 1.8375 8.47571 2.875V8.5H7.84862C6.11785 8.5 4.71316 9.9 4.71316 11.625V14.125C4.71316 14.475 4.43725 14.75 4.08607 14.75C3.7349 14.75 3.45898 15.025 3.45898 15.375C3.45898 15.725 3.7349 16 4.08607 16H14.1195C15.1605 16 16.0008 15.1625 16.0008 14.125V11.625C16.0008 9.9 14.5961 8.5 12.8653 8.5ZM9.72989 2.875C9.72989 2.525 10.0058 2.25 10.357 2.25C10.7081 2.25 10.9841 2.525 10.9841 2.875V8.5H9.72989V2.875ZM7.84862 9.75H12.8653C13.6806 9.75 14.3829 10.275 14.6337 11H6.06768C6.33106 10.275 7.02086 9.75 7.83607 9.75H7.84862ZM14.7466 14.125C14.7466 14.475 14.4707 14.75 14.1195 14.75H13.4046C13.4799 14.55 13.5175 14.35 13.5175 14.125V13.5C13.5175 13.15 13.2416 12.875 12.8904 12.875C12.5393 12.875 12.2633 13.15 12.2633 13.5V14.125C12.2633 14.475 11.9874 14.75 11.6362 14.75H10.8712C10.9464 14.55 10.9841 14.35 10.9841 14.125V13.5C10.9841 13.15 10.7081 12.875 10.357 12.875C10.0058 12.875 9.72989 13.15 9.72989 13.5V14.125C9.72989 14.475 9.45397 14.75 9.1028 14.75H8.36283C8.43808 14.55 8.47571 14.35 8.47571 14.125V13.5C8.47571 13.15 8.19979 12.875 7.84862 12.875C7.49745 12.875 7.22153 13.15 7.22153 13.5V14.125C7.22153 14.475 6.94561 14.75 6.59444 14.75H5.85447C5.92972 14.55 5.96735 14.3375 5.96735 14.125V12.25H14.7466V14.125Z" fill="#8B8EA0"/>
  <path d="M1.62709 14.75C1.97342 14.75 2.25418 14.4702 2.25418 14.125C2.25418 13.7798 1.97342 13.5 1.62709 13.5C1.28076 13.5 1 13.7798 1 14.125C1 14.4702 1.28076 14.75 1.62709 14.75Z" fill="#8B8EA0"/>
  <path d="M1.62709 12.25C1.97342 12.25 2.25418 11.9702 2.25418 11.625C2.25418 11.2798 1.97342 11 1.62709 11C1.28076 11 1 11.2798 1 11.625C1 11.9702 1.28076 12.25 1.62709 12.25Z" fill="#8B8EA0"/>
</svg>