<svg width="18" height="19" viewBox="0 0 18 19" fill="none" xmlns="http://www.w3.org/2000/svg">
<path d="M1.49955 5.24697C1.49987 4.31523 2.2553 3.56006 3.18705 3.56006H6.15369C6.54785 3.56006 6.92957 3.69803 7.23263 3.95004L9.0184 5.43497H13.3124C14.2443 5.43497 14.9999 6.19049 14.9999 7.12247V7.68652H4.81566C4.04108 7.68652 3.36596 8.21388 3.17839 8.96538L1.73687 14.741C1.73612 14.7439 1.76909 14.6118 1.73687 14.741C1.58422 14.4871 1.49647 14.1898 1.49658 13.872L1.49955 5.24697Z" fill="#8B8EA0"/>
<path d="M2.80822 15.0937C2.74916 15.3304 2.92815 15.5595 3.17206 15.5595H13.8518C14.4541 15.5595 14.979 15.1497 15.1251 14.5654L16.4475 9.27694C16.5067 9.04031 16.3277 8.81104 16.0837 8.81104H4.81565C4.55745 8.81104 4.33242 8.98676 4.26989 9.23726L2.80822 15.0937Z" fill="#8B8EA0"/>
</svg>
