<svg width="14" height="15" viewBox="0 0 14 15" fill="none" xmlns="http://www.w3.org/2000/svg">
<g id="folder-open-svgrepo-com 1">
<path id="Vector" d="M1.16637 4.14554C1.16662 3.42085 1.75418 2.8335 2.47887 2.8335H4.78626C5.09282 2.8335 5.38972 2.94081 5.62544 3.13682L7.01437 4.29176H10.3541C11.079 4.29176 11.6666 4.87939 11.6666 5.60426V6.04297H3.74557C3.14311 6.04297 2.61802 6.45314 2.47214 7.03764L1.35096 11.5298C1.35037 11.532 1.37601 11.4293 1.35096 11.5298C1.23223 11.3323 1.16398 11.1011 1.16406 10.8539L1.16637 4.14554Z" fill="white"/>
<path id="Vector_2" d="M2.18412 11.804C2.13818 11.9881 2.2774 12.1663 2.4671 12.1663H10.7736C11.242 12.1663 11.6503 11.8475 11.7639 11.3931L12.7925 7.27985C12.8385 7.09581 12.6992 6.91748 12.5095 6.91748H3.74545C3.54463 6.91748 3.3696 7.05416 3.32097 7.24899L2.18412 11.804Z" fill="white"/>
</g>
</svg>
