<svg width="38" height="38" viewBox="0 0 38 38" fill="none" xmlns="http://www.w3.org/2000/svg">
<path d="M14.6723 20.4569C15.2759 20.4569 15.8647 20.2558 16.3406 19.8878L12.5134 16.0605C11.591 17.2529 11.8118 18.9702 13.0041 19.8927C13.4849 20.2558 14.0688 20.4569 14.6723 20.4569Z" fill="white"/>
<path d="M26.0565 17.7239C26.0565 17.1204 25.8554 16.5316 25.4874 16.0557L21.6602 19.8829C22.8525 20.8053 24.5649 20.5845 25.4874 19.3922C25.8554 18.9163 26.0565 18.3275 26.0565 17.7239Z" fill="white"/>
<path d="M27.9844 13.5586L26.2916 15.2514C27.6557 16.8853 27.4398 19.319 25.8058 20.6831C24.3731 21.8803 22.2927 21.8803 20.8599 20.6831L19.0003 22.5427L17.1456 20.688C15.5116 22.052 13.0779 21.8362 11.7139 20.2022C10.5166 18.7695 10.5166 16.6891 11.7139 15.2563L10.8454 14.3878L10.0211 13.5586C9.02501 15.1974 8.5 17.0816 8.5 19.0001C8.5 24.7998 13.2006 29.5004 19.0003 29.5004C24.8 29.5004 29.5006 24.7998 29.5006 19.0001C29.5055 17.0816 28.9756 15.1974 27.9844 13.5586Z" fill="white"/>
<path d="M26.595 11.7524C22.5961 7.55722 15.9525 7.4002 11.7573 11.3991C11.6346 11.5169 11.5168 11.6347 11.404 11.7524C11.1439 12.0272 10.8986 12.3118 10.668 12.6111L18.9995 20.9475L27.331 12.6111C27.1053 12.3118 26.8551 12.0272 26.595 11.7524ZM18.9995 9.87317C21.4528 9.87317 23.7394 10.8202 25.4567 12.5473L18.9995 19.0045L12.5423 12.5473C14.2597 10.8202 16.5462 9.87317 18.9995 9.87317Z" fill="white"/>
</svg>
