<svg width="20" height="20" viewBox="0 0 20 20" fill="none" xmlns="http://www.w3.org/2000/svg">
<g id="tile-svgrepo-com">
<path id="Vector" fill-rule="evenodd" clip-rule="evenodd" d="M10.8333 4.99967C10.8333 4.0792 11.5795 3.33301 12.5 3.33301H15C15.9205 3.33301 16.6666 4.0792 16.6666 4.99967V7.49967C16.6666 8.42017 15.9205 9.16634 15 9.16634H12.5C11.5795 9.16634 10.8333 8.42017 10.8333 7.49967V4.99967ZM15 4.99967H12.5V7.49967H15V4.99967ZM4.99998 10.833C4.0795 10.833 3.33331 11.5792 3.33331 12.4997V14.9997C3.33331 15.9202 4.0795 16.6663 4.99998 16.6663H7.49998C8.42048 16.6663 9.16665 15.9202 9.16665 14.9997V12.4997C9.16665 11.5792 8.42048 10.833 7.49998 10.833H4.99998ZM4.99998 12.4997H7.49998V14.9997H4.99998V12.4997ZM12.5 10.833C11.5795 10.833 10.8333 11.5792 10.8333 12.4997V14.9997C10.8333 15.9202 11.5795 16.6663 12.5 16.6663H15C15.9205 16.6663 16.6666 15.9202 16.6666 14.9997V12.4997C16.6666 11.5792 15.9205 10.833 15 10.833H12.5ZM12.5 12.4997H15V14.9997H12.5V12.4997ZM4.99998 3.33301C4.0795 3.33301 3.33331 4.0792 3.33331 4.99967V7.49967C3.33331 8.42017 4.0795 9.16634 4.99998 9.16634H7.49998C8.42048 9.16634 9.16665 8.42017 9.16665 7.49967V4.99967C9.16665 4.0792 8.42048 3.33301 7.49998 3.33301H4.99998ZM4.99998 4.99967H7.49998V7.49967H4.99998V4.99967Z" fill="#8B8EA0"/>
</g>
</svg>
