<svg width="16" height="16" viewBox="0 0 16 16" fill="none" xmlns="http://www.w3.org/2000/svg">
<g id="info-circle-svgrepo-com 1">
<path id="Vector" fill-rule="evenodd" clip-rule="evenodd" d="M14.6666 7.9987C14.6666 11.6806 11.6818 14.6654 7.99992 14.6654C4.31802 14.6654 1.33325 11.6806 1.33325 7.9987C1.33325 4.3168 4.31802 1.33203 7.99992 1.33203C11.6818 1.33203 14.6666 4.3168 14.6666 7.9987ZM7.99992 11.832C8.27605 11.832 8.49992 11.6082 8.49992 11.332V7.33203C8.49992 7.0559 8.27605 6.83203 7.99992 6.83203C7.72378 6.83203 7.49992 7.0559 7.49992 7.33203V11.332C7.49992 11.6082 7.72378 11.832 7.99992 11.832ZM7.99992 4.66536C8.36812 4.66536 8.66658 4.96384 8.66658 5.33203C8.66658 5.70022 8.36812 5.9987 7.99992 5.9987C7.63172 5.9987 7.33325 5.70022 7.33325 5.33203C7.33325 4.96384 7.63172 4.66536 7.99992 4.66536Z" fill="#8B8EA0"/>
</g>
</svg>
