<svg width="14" height="14" viewBox="0 0 14 14" fill="none" xmlns="http://www.w3.org/2000/svg">
<g clip-path="url(#clip0_255_756)">
<path d="M9.66349 9.7825C9.41818 9.93125 9.13783 10.0188 8.8312 10.0188C8.63846 10.0188 8.44572 9.98375 8.26174 9.91375C7.95511 10.29 7.49954 10.5088 7.00892 10.5088C6.92131 10.5088 6.8337 10.4913 6.74609 10.4825L7.84997 13.0288C7.92882 13.2038 8.18289 13.2038 8.25298 13.0288L8.8312 11.5675L10.233 12.1188C10.4169 12.1888 10.5922 12.005 10.5133 11.83L9.66349 9.8V9.7825Z" fill="#8B8EA0"/>
<path fill-rule="evenodd" clip-rule="evenodd" d="M6.40387 1.19C6.69298 0.77 7.31501 0.77 7.60412 1.19C7.80562 1.47875 8.19111 1.58375 8.51526 1.435C8.97959 1.225 9.51401 1.53125 9.55781 2.03875C9.59286 2.38875 9.87321 2.66875 10.2236 2.70375C10.7318 2.7475 11.0384 3.28125 10.8282 3.745C10.6792 4.06875 10.7843 4.45375 11.0735 4.655C11.494 4.94375 11.494 5.565 11.0735 5.85375C10.7843 6.055 10.6792 6.44 10.8282 6.76375C11.0384 7.2275 10.7318 7.76125 10.2236 7.805C9.87321 7.84 9.59286 8.12 9.55781 8.47C9.51401 8.9775 8.97959 9.28375 8.51526 9.07375C8.19111 8.925 7.80562 9.03 7.60412 9.31875C7.31501 9.73875 6.69298 9.73875 6.40387 9.31875C6.20237 9.03 5.81689 8.925 5.49273 9.07375C5.0284 9.28375 4.49398 8.9775 4.45018 8.47C4.41514 8.12 4.13479 7.84 3.78435 7.805C3.27621 7.76125 2.96958 7.2275 3.17984 6.76375C3.32878 6.44 3.22365 6.055 2.93453 5.85375C2.51401 5.565 2.51401 4.94375 2.93453 4.655C3.22365 4.45375 3.32878 4.06875 3.17984 3.745C2.96958 3.28125 3.27621 2.7475 3.78435 2.70375C4.13479 2.66875 4.41514 2.38875 4.45018 2.03875C4.49398 1.53125 5.0284 1.225 5.49273 1.435C5.81689 1.58375 6.20237 1.47875 6.40387 1.19Z" fill="#8B8EA0"/>
<path d="M5.57146 9.9575C5.44881 9.9925 5.32616 10.01 5.18598 10.01C4.88811 10.01 4.61652 9.93125 4.37997 9.8L3.53892 11.8125C3.46007 11.9875 3.63529 12.1713 3.81927 12.1013L5.22103 11.55L5.79925 13.0113C5.86934 13.195 6.1234 13.195 6.20225 13.0113L6.54393 12.215L5.5627 9.9575H5.57146Z" fill="#8B8EA0"/>
</g>
<defs>
<clipPath id="clip0_255_756">
<rect width="14" height="14" fill="white"/>
</clipPath>
</defs>
</svg>
