<svg width="17" height="17" viewBox="0 0 17 17" fill="none" xmlns="http://www.w3.org/2000/svg">
<g id="Group 1057369">
<path id="Vector" d="M17.3444 -1.26758H-1.28319C-1.40212 -1.26758 -1.49854 -1.17116 -1.49854 -1.05223V17.5753C-1.49854 17.6943 -1.40212 17.7907 -1.28319 17.7907H17.3444C17.4633 17.7907 17.5597 17.6943 17.5597 17.5753V-1.05223C17.5597 -1.17116 17.4633 -1.26758 17.3444 -1.26758Z" fill="#DBCCF3"/>
<path id="Vector_2" fill-rule="evenodd" clip-rule="evenodd" d="M10.2286 6.47452C10.7025 6.07916 11.2312 5.92874 11.7382 5.96677C12.279 6.00733 12.7795 6.26085 13.1534 6.62908C13.5271 6.99733 13.7839 7.4899 13.825 8.02148C13.8665 8.55792 13.6869 9.11976 13.2133 9.61282C13.17 9.65826 13.1258 9.70305 13.0806 9.7473C10.9327 11.8631 8.07961 11.8687 8.05042 11.8687H8.05028C8.03569 11.8687 5.17355 11.8686 3.02013 9.74709L3.01967 9.74655C2.97521 9.70251 2.93143 9.65815 2.8883 9.61357L2.88796 9.61314C2.4142 9.1205 2.23441 8.5588 2.27576 8.02237C2.31673 7.49087 2.57335 6.99825 2.94703 6.62987C3.32068 6.2615 3.82113 6.00778 4.36207 5.96705C4.86906 5.92887 5.39785 6.0791 5.87195 6.47427C5.92294 5.86478 6.18854 5.39042 6.57408 5.06431C6.98528 4.71649 7.52114 4.54688 8.05029 4.54688C8.57945 4.54688 9.1153 4.71649 9.52648 5.06431C9.91206 5.39047 10.1777 5.86491 10.2286 6.47452ZM8.14862 11.6542L8.14852 11.6515H8.14869L8.14862 11.6542ZM7.95197 11.6542L7.9519 11.6515H7.95207L7.95197 11.6542ZM9.66398 8.71626C9.60519 8.71626 9.58484 8.79987 9.62231 8.84416C9.68863 8.9226 9.72858 9.02352 9.72858 9.13363C9.72858 9.38347 9.52303 9.58601 9.26946 9.58601C9.01583 9.58601 8.81024 9.38347 8.81024 9.13363C8.81024 9.12026 8.79254 9.11362 8.78454 9.12445C8.71212 9.22245 8.66322 9.33246 8.64313 9.44797C8.63183 9.513 8.57816 9.56695 8.51073 9.56695H8.47348C8.38547 9.56695 8.31286 9.4966 8.32585 9.41143C8.4149 8.82774 8.99882 8.40439 9.66398 8.40439C10.3291 8.40439 10.913 8.82774 11.002 9.41143C11.015 9.4966 10.9424 9.56695 10.8544 9.56695C10.7663 9.56695 10.6967 9.49625 10.6775 9.41219C10.5905 9.02959 10.1869 8.71626 9.66398 8.71626ZM5.58635 9.13363C5.58635 9.116 5.56316 9.10653 5.55224 9.12056C5.47482 9.22009 5.42207 9.3328 5.39974 9.45159C5.38656 9.52172 5.32862 9.58008 5.25571 9.58008H5.22838C5.14037 9.58008 5.06776 9.50977 5.08074 9.4246C5.16974 8.84059 5.75373 8.41756 6.41883 8.41756C7.08392 8.41756 7.66791 8.84059 7.75691 9.4246C7.7699 9.50977 7.69728 9.58008 7.60927 9.58008C7.52127 9.58008 7.45157 9.50945 7.43246 9.42537C7.34545 9.04253 6.9419 8.72943 6.41883 8.72943C6.37128 8.72943 6.35388 8.7952 6.38571 8.82975C6.45966 8.91005 6.50472 9.01666 6.50472 9.13363C6.50472 9.38347 6.29914 9.58601 6.04554 9.58601C5.79193 9.58601 5.58635 9.38347 5.58635 9.13363ZM8.56112 10.2246C8.62332 10.1637 8.71945 10.1341 8.79669 10.1753C8.87392 10.2167 8.90322 10.3125 8.84756 10.3792C8.66628 10.5964 8.37277 10.7341 8.04906 10.7341C7.72553 10.7341 7.43137 10.5979 7.24986 10.379C7.19439 10.3122 7.22406 10.2163 7.30144 10.1753C7.37883 10.1343 7.47481 10.1643 7.53692 10.2253C7.65657 10.3428 7.83814 10.4223 8.04906 10.4223C8.25944 10.4223 8.4412 10.342 8.56112 10.2246Z" fill="#3D4B41"/>
</g>
</svg>
