<svg width="19" height="19" viewBox="0 0 19 19" fill="none" xmlns="http://www.w3.org/2000/svg">
<path opacity="0.5" fill-rule="evenodd" clip-rule="evenodd" d="M9.31626 18.652C14.3148 18.652 18.3669 14.5999 18.3669 9.60141C18.3669 4.60289 14.3148 0.550781 9.31626 0.550781C4.31773 0.550781 0.265625 4.60289 0.265625 9.60141C0.265625 14.5999 4.31773 18.652 9.31626 18.652ZM13.6099 7.09275C13.0195 7.04847 12.404 7.2236 11.8523 7.68391C11.793 6.97416 11.4837 6.42178 11.0348 6.04204C10.5561 5.63709 9.93222 5.43961 9.31612 5.43961C8.70005 5.43961 8.07616 5.63709 7.59742 6.04204C7.14853 6.42173 6.8393 6.97401 6.77994 7.68362C6.22795 7.22354 5.6123 7.04862 5.02202 7.09308C4.39222 7.1405 3.80956 7.4359 3.37453 7.86478C2.93946 8.29368 2.64069 8.86722 2.59299 9.48603C2.54485 10.1106 2.75417 10.7646 3.30576 11.3381L3.30616 11.3386C3.35637 11.3905 3.40734 11.4422 3.4591 11.4935L3.45964 11.4941C5.96681 13.9641 9.29913 13.9642 9.31611 13.9642H9.31628C9.35026 13.9642 12.672 13.9577 15.1727 11.4943C15.2254 11.4428 15.2769 11.3907 15.3273 11.3378C15.8787 10.7637 16.0878 10.1096 16.0395 9.48501C15.9916 8.86609 15.6926 8.29261 15.2575 7.86386C14.8222 7.43514 14.2396 7.13998 13.6099 7.09275ZM9.43049 13.7114L9.43061 13.7145L9.43069 13.7114H9.43049ZM9.20157 13.7114L9.20166 13.7145L9.20177 13.7114H9.20157ZM11.1464 10.4428C11.1028 10.3913 11.1264 10.2939 11.1949 10.2939C11.8038 10.2939 12.2736 10.6587 12.3749 11.1042C12.3972 11.202 12.4783 11.2843 12.5809 11.2843C12.6833 11.2843 12.7678 11.2024 12.7528 11.1033C12.6491 10.4237 11.9693 9.93082 11.1949 9.93082C10.4205 9.93082 9.74063 10.4237 9.63695 11.1033C9.62183 11.2024 9.70636 11.2843 9.80884 11.2843H9.8522C9.93071 11.2843 9.99319 11.2215 10.0064 11.1458C10.0297 11.0113 10.0867 10.8833 10.171 10.7692C10.1803 10.7565 10.2009 10.7643 10.2009 10.7798C10.2009 11.0707 10.4403 11.3065 10.7356 11.3065C11.0308 11.3065 11.2701 11.0707 11.2701 10.7798C11.2701 10.6516 11.2236 10.5341 11.1464 10.4428ZM6.40771 10.7646C6.42042 10.7483 6.44742 10.7593 6.44742 10.7798C6.44742 11.0707 6.68678 11.3065 6.98204 11.3065C7.2773 11.3065 7.51666 11.0707 7.51666 10.7798C7.51666 10.6437 7.46419 10.5195 7.3781 10.426C7.34104 10.3858 7.3613 10.3092 7.41666 10.3092C8.02565 10.3092 8.49549 10.6738 8.5968 11.1195C8.61905 11.2174 8.7002 11.2996 8.80266 11.2996C8.90513 11.2996 8.98967 11.2178 8.97455 11.1186C8.87093 10.4387 8.191 9.94615 7.41666 9.94615C6.6423 9.94615 5.96237 10.4387 5.85875 11.1186C5.84364 11.2178 5.92817 11.2996 6.03064 11.2996H6.06246C6.14736 11.2996 6.21481 11.2317 6.23016 11.15C6.25616 11.0117 6.31757 10.8805 6.40771 10.7646ZM10.1851 11.9926C10.0952 11.9446 9.98329 11.9791 9.91087 12.0501C9.77125 12.1867 9.55963 12.2802 9.3147 12.2802C9.06913 12.2802 8.85773 12.1877 8.71843 12.0508C8.6461 11.9799 8.53436 11.9449 8.44426 11.9926C8.35416 12.0404 8.31962 12.152 8.3842 12.2298C8.59553 12.4847 8.93801 12.6433 9.3147 12.6433C9.69158 12.6433 10.0333 12.4829 10.2444 12.2301C10.3092 12.1524 10.2751 12.0408 10.1851 11.9926Z" fill="#8B8EA0"/>
</svg>
