<svg width="20" height="20" viewBox="0 0 20 20" fill="none" xmlns="http://www.w3.org/2000/svg">
<g id="tile-svgrepo-com">
<path id="Vector" fill-rule="evenodd" clip-rule="evenodd" d="M5.33317 11.5C4.4127 11.5 3.6665 12.2462 3.6665 13.1667V15.6667C3.6665 16.5872 4.4127 17.3333 5.33317 17.3333H15.3332C16.2537 17.3333 16.9999 16.5872 16.9999 15.6667V13.1667C16.9999 12.2462 16.2537 11.5 15.3332 11.5H5.33317ZM5.33317 13.1667H15.3332V15.6667H5.33317V13.1667ZM5.33317 4C4.4127 4 3.6665 4.74619 3.6665 5.66667V8.16667C3.6665 9.08717 4.4127 9.83333 5.33317 9.83333H15.3332C16.2537 9.83333 16.9999 9.08717 16.9999 8.16667V5.66667C16.9999 4.74619 16.2537 4 15.3332 4H5.33317ZM5.33317 5.66667L15.3332 5.66667V8.16667H5.33317V5.66667Z" fill="#8B8EA0"/>
</g>
</svg>
