<svg width="20" height="20" viewBox="0 0 20 20" fill="none" xmlns="http://www.w3.org/2000/svg">
<path fill-rule="evenodd" clip-rule="evenodd" d="M16.4633 5.11172L10.8883 1.89922C10.2883 1.54922 9.56328 1.54922 8.96328 1.89922L3.38828 5.11172C2.78828 5.46172 2.42578 6.09922 2.42578 6.78672V13.2242C2.42578 13.9117 2.78828 14.5492 3.38828 14.8867L8.96328 18.0992C9.56328 18.4492 10.2883 18.4492 10.8883 18.0992L16.4633 14.8867C17.0633 14.5367 17.4258 13.8992 17.4258 13.2242V6.78672C17.4258 6.09922 17.0633 5.46172 16.4633 5.11172ZM8.15078 5.62422C9.17578 5.62422 10.0258 6.46172 10.0258 7.49922C10.0258 8.53672 9.17578 9.37422 8.15078 9.37422C7.12578 9.37422 6.27578 8.53672 6.27578 7.49922C6.27578 6.46172 7.11328 5.62422 8.15078 5.62422ZM15.5508 12.9742C15.5508 13.1867 15.4383 13.3867 15.2508 13.4992L10.2383 16.3992C10.1508 16.4492 10.0383 16.4742 9.93828 16.4742C9.83828 16.4742 9.72578 16.4492 9.63828 16.3992L4.62578 13.4992C4.43828 13.3867 4.32578 13.1867 4.32578 12.9742V12.4742L5.35078 11.4492C5.67578 11.1242 6.21328 11.1242 6.52578 11.4492L8.63828 13.5867L12.1133 10.1117C12.4383 9.78672 12.9758 9.78672 13.3008 10.1117L15.5633 12.3742V12.9742H15.5508Z" fill="#8B8EA0"/>
</svg>
