<svg width="31" height="30" viewBox="0 0 31 30" fill="none" xmlns="http://www.w3.org/2000/svg">
<g clip-path="url(#clip0_193_6475)">
<path fill-rule="evenodd" clip-rule="evenodd" d="M28.9808 9.22607V20.7761C28.9808 22.0211 28.3058 23.1611 27.2558 23.7761L18.3608 28.9061L17.2658 29.5361C16.1858 30.1511 14.8658 30.1511 13.8008 29.5361L7.4708 25.8911L3.7958 23.7761C2.7158 23.1611 2.0708 22.0211 2.0708 20.7761V9.22607C2.0708 7.99607 2.7308 6.85607 3.7958 6.24107L13.8008 0.466072C14.8508 -0.148928 16.1858 -0.148928 17.2658 0.466072L27.2558 6.25607C28.3058 6.87107 28.9808 8.01107 28.9808 9.24107V9.22607Z" fill="#FF1C4F"/>
<path d="M11.0264 13.5007C12.6832 13.5007 14.0264 12.1575 14.0264 10.5007C14.0264 8.84382 12.6832 7.50067 11.0264 7.50067C9.36951 7.50067 8.02637 8.84382 8.02637 10.5007C8.02637 12.1575 9.36951 13.5007 11.0264 13.5007Z" fill="#FFE75A"/>
<path fill-rule="evenodd" clip-rule="evenodd" d="M18.3457 28.9063L17.2507 29.5363C16.1707 30.1513 14.8507 30.1513 13.7857 29.5363L7.45566 25.8913L3.78066 23.7763C2.70066 23.1613 2.05566 22.0213 2.05566 20.7763V19.4863L4.30566 17.2363C4.93566 16.5763 6.01566 16.5763 6.67566 17.2363L18.3457 28.9063Z" fill="#2CC9DB"/>
<path d="M28.9812 20.2967V20.7767C28.9812 22.0217 28.3062 23.1617 27.2562 23.7767L18.3612 28.9067L17.2662 29.5367C16.1862 30.1517 14.8662 30.1517 13.8012 29.5367L7.47119 25.8917L19.8462 13.5317C20.5062 12.8717 21.5562 12.8717 22.2162 13.5317L28.9812 20.2967Z" fill="#BEF2EF"/>
</g>
<g style="mix-blend-mode:saturation">
<rect x="0.529785" width="30" height="30" fill="#D9D9D9"/>
</g>
<defs>
<clipPath id="clip0_193_6475">
<rect width="30" height="30" fill="white" transform="translate(0.526367)"/>
</clipPath>
</defs>
</svg>
