<svg width="21" height="21" viewBox="0 0 21 21" fill="none" xmlns="http://www.w3.org/2000/svg">
<g id="icon-NFT-metadata" clip-path="url(#clip0_2194_6711)">
<g id="Group 1057362">
<path id="Vector" d="M17.5053 7.17079V13.6095C17.5053 14.3019 17.1341 14.9372 16.5416 15.2798L11.5805 18.1351L10.9666 18.492C10.367 18.8347 9.63178 18.8347 9.03931 18.492L5.51301 16.4576L3.47148 15.2798C2.87186 14.9372 2.50781 14.3019 2.50781 13.6095V7.17079C2.50781 6.48551 2.87186 5.85735 3.47148 5.51471L9.03931 2.28823C9.62464 1.94559 10.367 1.94559 10.9666 2.28823L16.5345 5.51471C17.1198 5.85735 17.4981 6.48551 17.4981 7.17079H17.5053Z" fill="#E2F7FD"/>
<path id="Vector_2" d="M7.50482 9.55554C8.42733 9.55554 9.17517 8.8077 9.17517 7.88519C9.17517 6.96268 8.42733 6.21484 7.50482 6.21484C6.58231 6.21484 5.83447 6.96268 5.83447 7.88519C5.83447 8.8077 6.58231 9.55554 7.50482 9.55554Z" fill="#3486FF"/>
<path id="Vector_3" d="M11.5878 18.136L10.974 18.4929C10.3743 18.8356 9.6391 18.8356 9.04663 18.4929L5.52034 16.4585L3.4788 15.2807C2.87919 14.9381 2.51514 14.3028 2.51514 13.6104V12.8894L3.77147 11.6402C4.12124 11.2762 4.72085 11.2762 5.0849 11.6402L11.5878 18.1432V18.136Z" fill="#A9E8FA"/>
<path id="Vector_4" d="M17.5054 13.3389V13.603C17.5054 14.2954 17.1342 14.9307 16.5418 15.2734L11.5807 18.1287L10.9668 18.4856C10.3672 18.8282 9.63195 18.8282 9.03948 18.4856L5.51318 16.4512L12.4087 9.56991C12.7728 9.20586 13.3652 9.20586 13.7293 9.56991L17.4983 13.3389H17.5054Z" fill="#80D4FF"/>
</g>
</g>
<defs>
<clipPath id="clip0_2194_6711">
<rect width="20.0613" height="20.0613" fill="white" transform="translate(0 0.226562)"/>
</clipPath>
</defs>
</svg>
