<svg width="20" height="20" viewBox="0 0 20 20" fill="none" xmlns="http://www.w3.org/2000/svg">
<g id="icon-tiny-line-contract">
<path id="Vector" d="M17.8501 6.18333L12.1501 0.483333C11.8334 0.166667 11.4167 0 10.9667 0H4.98341C3.16675 0 1.66675 1.5 1.66675 3.33333V16.6667C1.66675 18.5 3.16675 20 5.00008 20H15.0001C16.8334 20 18.3334 18.5 18.3334 16.6667V7.35C18.3334 6.9 18.1501 6.48333 17.8501 6.16667V6.18333ZM16.6334 16.6667C16.6334 17.5667 15.9001 18.2833 15.0167 18.2833H5.00008C4.10008 18.2833 3.38341 17.55 3.38341 16.6667V3.33333C3.38341 2.43333 4.11675 1.71667 5.00008 1.71667H10.0001V6.66667C10.0001 7.58333 10.7501 8.33333 11.6667 8.33333H16.6167V16.6667H16.6334Z" fill="#8B8EA0"/>
</g>
</svg>
