<svg width="17" height="22" viewBox="0 0 17 22" fill="none" xmlns="http://www.w3.org/2000/svg">
<g id="POAP.fcb0c058eb2cc26431dcceba887829bd 1" clip-path="url(#clip0_2194_6722)">
<g id="app-Mobile">
<g id="m-05">
<g id="Header">
<g id="Logo">
<path id="Fill-1" fill-rule="evenodd" clip-rule="evenodd" d="M12.5236 14.9766C12.7924 15.6113 13.0618 16.2457 13.33 16.8807C13.6349 17.6027 13.9356 18.3265 14.245 19.0467C14.3516 19.2949 14.3712 19.5329 14.1816 19.7401C13.9972 19.9416 13.7628 19.9501 13.5137 19.8622C12.9195 19.6523 12.3218 19.4522 11.7292 19.2379C11.5838 19.1854 11.5241 19.2234 11.463 19.3569C11.1904 19.9521 10.9093 20.5433 10.627 21.1339C10.5143 21.3696 10.3164 21.4578 10.0607 21.4389C9.83354 21.4222 9.69349 21.2946 9.60988 21.0956C9.16929 20.0471 8.73062 18.9977 8.29074 17.9489C8.27048 17.9005 8.24497 17.8543 8.2088 17.7802C8.05748 18.137 7.91467 18.47 7.77487 18.8043C7.45655 19.5653 7.14081 20.3274 6.82157 21.0881C6.72609 21.3156 6.5601 21.4383 6.30268 21.4408C6.04384 21.4433 5.88661 21.3177 5.78128 21.0937C5.50278 20.5012 5.21741 19.9119 4.94014 19.3189C4.88891 19.2093 4.83662 19.1925 4.72176 19.2333C4.09457 19.4559 3.46427 19.6699 2.83386 19.8833C2.61363 19.9578 2.4028 19.9188 2.24879 19.7473C2.09461 19.5756 2.04997 19.3684 2.14669 19.1388C2.66153 17.917 3.17195 16.6933 3.68488 15.4707C3.70986 15.4112 3.74419 15.3555 3.77413 15.2981C3.85285 15.331 3.92657 15.371 3.97699 15.4435C3.72332 16.0587 3.47135 16.6746 3.21546 17.2888C2.95251 17.9199 2.68499 18.5491 2.42112 19.1797C2.36358 19.3172 2.34399 19.458 2.46094 19.5757C2.56871 19.6841 2.69321 19.6516 2.82171 19.6066C3.47763 19.3767 4.13663 19.1555 4.79078 18.9208C4.95789 18.8608 5.03941 18.8921 5.11484 19.0576C5.40585 19.6962 5.71184 20.328 6.01146 20.9627C6.0707 21.0881 6.15459 21.1858 6.30304 21.1836C6.44255 21.1816 6.52896 21.0919 6.58019 20.9695C7.04894 19.8497 7.51249 18.7277 7.98904 17.6112C8.06329 17.4371 8.05086 17.303 7.94705 17.1588C7.89894 17.1876 7.89104 17.2292 7.87542 17.2663C7.41169 18.3692 6.94804 19.4721 6.48347 20.5746C6.45258 20.6479 6.44316 20.7517 6.33878 20.7539C6.22807 20.7562 6.20823 20.6486 6.1699 20.5723C5.85157 19.9395 5.53173 19.3074 5.22049 18.6711C5.16479 18.5572 5.1119 18.5305 4.9918 18.5725C4.64726 18.693 4.29864 18.8019 3.95116 18.9139C3.59805 19.0276 3.24415 19.139 2.89114 19.2531C2.83223 19.2721 2.77533 19.2891 2.72793 19.2359C2.68708 19.1901 2.6993 19.1378 2.7207 19.0863C2.7388 19.0428 2.75379 18.998 2.772 18.9545C3.24819 17.8185 3.72463 16.6826 4.201 15.5467C4.59897 15.6515 5.00671 15.6409 5.40929 15.6159C5.94153 15.5828 6.39589 15.7524 6.82851 16.0419C7.17936 16.2767 7.54048 16.5034 7.98606 16.5126C8.59975 17.9804 9.21432 19.4477 9.82578 20.9164C9.88357 21.0552 9.95099 21.1788 10.1174 21.1833C10.2836 21.1878 10.3629 21.0685 10.4264 20.9335C10.7095 20.3303 10.9909 19.7262 11.2806 19.1262C11.4158 18.8461 11.3492 18.8282 11.711 18.9529C12.3457 19.1717 12.9808 19.3893 13.6141 19.6121C13.7534 19.6611 13.878 19.6711 13.9855 19.5541C14.0944 19.4355 14.0633 19.3112 14.007 19.1776C13.449 17.8526 12.8941 16.5263 12.3383 15.2003C12.3952 15.1217 12.4413 15.0341 12.5236 14.9766Z" fill="#FCCDD3"/>
<g id="Group-5">
<g id="Mask group">
<mask id="mask0_2194_6722" style="mask-type:luminance" maskUnits="userSpaceOnUse" x="0" y="0" width="17" height="17">
<g id="Group">
<path id="Vector" d="M0.00634766 0.478516H16.0248V16.5176H0.00634766V0.478516Z" fill="#6534FF"/>
</g>
</mask>
<g mask="url(#mask0_2194_6722)">
<path id="Fill-3" fill-rule="evenodd" clip-rule="evenodd" d="M5.37848 1.68876C5.09186 1.68876 4.89669 1.68085 4.7024 1.69046C4.34882 1.70797 4.0541 1.83986 3.84333 2.14143C3.68029 2.37472 3.54545 2.6234 3.41755 2.87569C3.18791 3.32879 2.85006 3.66716 2.39644 3.89524C2.19641 3.99582 2.00389 4.11137 1.80897 4.22191C1.40126 4.45307 1.20987 4.80726 1.21391 5.27277C1.2165 5.57406 1.21395 5.87538 1.21862 6.1766C1.22383 6.51029 1.13859 6.81846 0.969633 7.10418C0.834509 7.33268 0.699704 7.5615 0.559621 7.78699C0.2701 8.25304 0.255468 8.71745 0.555369 9.18484C0.625447 9.294 0.682026 9.41242 0.757594 9.51736C1.11347 10.0117 1.27223 10.558 1.22008 11.1677C1.20399 11.3555 1.21303 11.5456 1.21466 11.7346C1.21806 12.1376 1.35718 12.4733 1.70771 12.6978C1.84163 12.7836 1.97431 12.8758 2.11864 12.9401C2.76539 13.2283 3.24998 13.6763 3.53847 14.3304C3.59771 14.4648 3.67923 14.5895 3.75288 14.7172C3.9837 15.1176 4.33685 15.3021 4.79256 15.302C5.10543 15.3019 5.41833 15.3011 5.7312 15.298C6.06501 15.2948 6.37065 15.3903 6.65553 15.5581C6.88425 15.6928 7.11269 15.8281 7.33798 15.9684C7.78796 16.2487 8.2362 16.2522 8.68709 15.9721C8.85747 15.8663 9.03316 15.7689 9.20098 15.6593C9.5874 15.407 10.003 15.2702 10.4702 15.2961C10.7234 15.31 10.9778 15.3013 11.2316 15.3021C11.6945 15.3035 12.0525 15.1176 12.284 14.7086C12.3944 14.5135 12.5103 14.321 12.6107 14.1208C12.8384 13.667 13.172 13.3248 13.6278 13.098C13.8335 12.9956 14.0327 12.8794 14.2302 12.7616C14.5507 12.5706 14.7658 12.3067 14.8025 11.9184C14.8365 11.5584 14.8129 11.1984 14.8119 10.8386C14.8108 10.4736 14.9019 10.1394 15.0904 9.829C15.2282 9.60206 15.3629 9.37324 15.4999 9.1458C15.7535 8.72457 15.7662 8.29955 15.5176 7.87226C15.4078 7.68357 15.2973 7.49506 15.1788 7.3118C14.9251 6.91943 14.7843 6.49902 14.8117 6.02478C14.8267 5.76569 14.8207 5.50503 14.8171 5.24519C14.8116 4.85023 14.6748 4.5215 14.333 4.29438C14.1015 4.14047 13.8581 4.00827 13.6114 3.88219C13.1765 3.65982 12.8501 3.33283 12.6265 2.89834C12.5158 2.68342 12.3955 2.47318 12.2732 2.26457C12.0828 1.93995 11.8085 1.73329 11.4256 1.69826C11.2791 1.68486 11.131 1.68982 10.9835 1.6872C10.6651 1.68145 10.3452 1.71354 10.0285 1.67032C9.63718 1.61693 9.30167 1.41916 8.99412 1.19205C8.3372 0.706892 7.70272 0.700085 7.04574 1.18978C6.52706 1.57637 5.94778 1.78672 5.37848 1.68876ZM3.97722 15.4431C3.9268 15.3706 3.85308 15.3306 3.77435 15.2978C3.43552 14.8991 3.22918 14.4182 2.95631 13.9785C2.78509 13.7027 2.52203 13.535 2.24484 13.3839C1.9758 13.2371 1.69864 13.1039 1.45245 12.9178C1.09477 12.6475 0.910609 12.2865 0.896792 11.8404C0.890238 11.6279 0.879928 11.4135 0.899981 11.2027C0.953513 10.6403 0.798833 10.1437 0.478561 9.68573C0.35736 9.5124 0.254051 9.32446 0.160662 9.13424C-0.0505971 8.70408 -0.0410669 8.27005 0.16548 7.83822C0.282996 7.59242 0.432539 7.36551 0.577654 7.13645C0.798408 6.78804 0.924993 6.41843 0.901008 5.99933C0.886518 5.74604 0.897536 5.49141 0.894419 5.23742C0.887333 4.66509 1.14192 4.24127 1.62626 3.95076C1.81329 3.83858 2.00233 3.72821 2.198 3.63249C2.62775 3.42228 2.94377 3.10692 3.15609 2.67661C3.30188 2.38103 3.45327 2.0868 3.672 1.83355C3.94041 1.5228 4.28367 1.38165 4.68557 1.3701C4.89198 1.36417 5.10051 1.3512 5.30489 1.37236C5.88163 1.432 6.38528 1.2604 6.85169 0.934082C7.0057 0.826372 7.17413 0.737879 7.34121 0.650698C7.79274 0.415035 8.24534 0.426876 8.69907 0.651974C8.9324 0.767731 9.15085 0.908094 9.36867 1.04849C9.72182 1.27607 10.1007 1.39282 10.523 1.37442C10.7764 1.36336 11.0305 1.3707 11.2843 1.36846C11.8574 1.36339 12.2762 1.62547 12.5628 2.11162C12.6796 2.30973 12.7961 2.50874 12.8981 2.71465C13.097 3.11621 13.3958 3.41058 13.7954 3.61036C14.0432 3.73424 14.2873 3.86599 14.5162 4.02362C14.9257 4.30569 15.1318 4.69629 15.137 5.19271C15.139 5.38764 15.1518 5.58409 15.133 5.77724C15.0777 6.34571 15.2333 6.84902 15.5597 7.31035C15.6615 7.45429 15.7457 7.61153 15.8298 7.7671C16.1097 8.28501 16.0817 8.7969 15.7882 9.29978C15.6425 9.54948 15.4941 9.79759 15.3463 10.0461C15.1978 10.2959 15.1298 10.5662 15.1331 10.8564C15.1366 11.1517 15.1331 11.4472 15.1381 11.7425C15.1479 12.3153 14.8944 12.74 14.4128 13.0331C14.2064 13.1588 13.9939 13.2753 13.7795 13.3868C13.4304 13.5684 13.1436 13.8111 12.9592 14.1661C12.8178 14.438 12.6694 14.7063 12.524 14.9762C12.4415 15.0337 12.3954 15.1213 12.3385 15.2C12.2637 15.2422 12.2066 15.3042 12.1517 15.3687C11.8357 15.5809 11.483 15.6364 11.1104 15.6235C10.8456 15.6144 10.5802 15.6216 10.3151 15.6209C10.1307 15.6203 9.95299 15.6545 9.78428 15.7286C9.25983 15.9591 8.81953 16.3525 8.26118 16.5177C8.16998 16.4916 8.07798 16.5119 7.98629 16.5123C7.5407 16.503 7.17958 16.2764 6.82877 16.0415C6.39612 15.752 5.94175 15.5824 5.40951 15.6155C5.00694 15.6406 4.5992 15.6511 4.20119 15.5464C4.13377 15.4962 4.06231 15.4548 3.97722 15.4431Z" fill="#6534FF"/>
</g>
</g>
</g>
<path id="Fill-10" fill-rule="evenodd" clip-rule="evenodd" d="M10.28 10.1647C10.4234 10.169 10.52 10.0502 10.4781 9.90321C10.2228 9.00892 9.96393 8.11569 9.70577 7.22221C9.66598 7.08458 9.56108 7.05675 9.44073 7.08536C9.34238 7.10869 9.31644 7.20154 9.2909 7.2878C9.12534 7.84649 8.95961 8.40514 8.79366 8.96371C8.70311 9.26837 8.60837 9.57182 8.52292 9.87786C8.4877 10.004 8.51452 10.1213 8.66052 10.1577C8.78775 10.1895 8.87533 10.1383 8.90958 10.0012C8.94236 9.86999 8.99174 9.74296 9.02473 9.61181C9.04751 9.52137 9.09445 9.489 9.18674 9.49141C9.3929 9.49676 9.59941 9.49666 9.80557 9.49148C9.90278 9.48907 9.95624 9.51488 9.97683 9.61993C10.0017 9.74647 10.0456 9.86949 10.0847 9.99291C10.1149 10.0878 10.1628 10.1668 10.28 10.1647ZM5.64405 8.6291C5.63009 8.7757 5.6725 8.91425 5.74101 9.04855C5.87235 9.30591 6.00322 9.56367 6.12789 9.82432C6.22823 10.0342 6.38 10.1587 6.6196 10.1669C6.87178 10.1755 7.02625 10.0434 7.12977 9.829C7.2656 9.54761 7.40696 9.2688 7.53932 8.9858C7.65322 8.7423 7.65244 8.49466 7.53408 8.25148C7.38698 7.94923 7.24172 7.64599 7.0874 7.34747C6.90246 6.98981 6.38857 6.96407 6.18787 7.31457C6.00078 7.64135 5.84826 7.98809 5.68553 8.32848C5.64203 8.41953 5.63459 8.52192 5.64405 8.6291ZM11.3816 8.56851C11.3816 9.01725 11.3833 9.46603 11.3805 9.91477C11.3797 10.0609 11.4314 10.1612 11.5879 10.1631C11.7665 10.1652 11.7936 10.0295 11.7965 9.8936C11.802 9.63979 11.8026 9.38569 11.7963 9.13198C11.7936 9.02352 11.83 8.98835 11.9379 8.99073C12.2151 8.99686 12.4926 8.99732 12.7698 8.9913C13.0998 8.98417 13.3504 8.73645 13.3605 8.40577C13.3681 8.15802 13.3686 7.90963 13.3603 7.66188C13.3492 7.32457 13.0889 7.07891 12.7523 7.07798C12.3511 7.07685 11.9498 7.08274 11.5487 7.07479C11.4196 7.07221 11.3755 7.10319 11.3782 7.24001C11.3871 7.68269 11.3816 8.12565 11.3816 8.56851ZM2.77247 8.574C2.77247 9.01094 2.77223 9.44787 2.77279 9.88484C2.77286 9.93186 2.76645 9.98287 2.78204 10.025C2.81839 10.1232 2.89258 10.1743 3.00194 10.1642C3.13845 10.1517 3.1805 10.0509 3.18429 9.94111C3.19329 9.68162 3.19499 9.42142 3.18638 9.16194C3.1821 9.03313 3.21448 8.98431 3.35212 8.98963C3.62311 9.0002 3.89495 8.99764 4.16622 8.99101C4.4871 8.98318 4.73843 8.73886 4.75079 8.41797C4.76053 8.16444 4.76025 7.90998 4.75097 7.65642C4.73864 7.31996 4.47718 7.07869 4.13774 7.07791C3.73651 7.07703 3.33515 7.0838 2.93413 7.07433C2.79653 7.07111 2.76744 7.1172 2.7696 7.24547C2.77704 7.68818 2.77247 8.13115 2.77247 8.574ZM5.37851 1.68961C5.94781 1.78757 6.5271 1.57722 7.04577 1.19059C7.70272 0.700903 8.33724 0.707746 8.99415 1.1929C9.30171 1.41998 9.63718 1.61774 10.0285 1.67117C10.3452 1.71436 10.6652 1.68231 10.9836 1.68801C11.131 1.69067 11.2791 1.68571 11.4256 1.69911C11.8085 1.73414 12.0829 1.9408 12.2732 2.26542C12.3956 2.47403 12.5158 2.68424 12.6265 2.89919C12.8502 3.33368 13.1765 3.66068 13.6115 3.88301C13.8581 4.00912 14.1015 4.14133 14.333 4.2952C14.6748 4.52235 14.8116 4.85108 14.8171 5.246C14.8208 5.50588 14.8268 5.7665 14.8117 6.02564C14.7843 6.49984 14.9251 6.92025 15.1788 7.31265C15.2973 7.49588 15.4079 7.68443 15.5176 7.87311C15.7662 8.3004 15.7536 8.72539 15.4999 9.14662C15.3629 9.37406 15.2282 9.60288 15.0904 9.82982C14.9019 10.1403 14.8109 10.4745 14.8119 10.8394C14.8129 11.1992 14.8365 11.5592 14.8025 11.9192C14.7658 12.3076 14.5508 12.5714 14.2302 12.7625C14.0328 12.8802 13.8335 12.9964 13.6278 13.0988C13.1721 13.3257 12.8384 13.6679 12.6107 14.1216C12.5103 14.3218 12.3945 14.5143 12.284 14.7094C12.0525 15.1185 11.6945 15.3043 11.2317 15.3029C10.9778 15.3022 10.7234 15.3109 10.4703 15.2969C10.003 15.2711 9.58743 15.4078 9.20102 15.6601C9.03319 15.7697 8.8575 15.8671 8.68713 15.973C8.2362 16.253 7.78799 16.2495 7.33802 15.9693C7.11273 15.829 6.88429 15.6936 6.65556 15.5589C6.37068 15.3912 6.06504 15.2956 5.7312 15.2989C5.41837 15.302 5.10547 15.3027 4.7926 15.3028C4.33688 15.303 3.98373 15.1184 3.75292 14.718C3.67926 14.5903 3.59774 14.4656 3.5385 14.3313C3.25001 13.6772 2.76542 13.2292 2.11868 12.9409C1.97431 12.8766 1.84166 12.7844 1.70775 12.6986C1.35722 12.4741 1.21809 12.1384 1.21469 11.7354C1.21306 11.5464 1.20403 11.3563 1.22011 11.1686C1.27226 10.5589 1.11351 10.0126 0.757628 9.51821C0.682059 9.41323 0.62548 9.29485 0.555403 9.18566C0.255502 8.7183 0.270098 8.25389 0.559654 7.78781C0.699738 7.56236 0.834543 7.33354 0.969666 7.10504C1.13862 6.81928 1.22386 6.51111 1.21866 6.17745C1.21398 5.87623 1.21653 5.57491 1.21395 5.27362C1.20991 4.80811 1.40129 4.45392 1.809 4.22273C2.00393 4.11222 2.19644 3.99664 2.39644 3.89609C2.8501 3.66802 3.18794 3.32961 3.41759 2.87654C3.54548 2.62421 3.68032 2.37557 3.84337 2.14225C4.05413 1.84068 4.34882 1.70879 4.7024 1.69131C4.89672 1.6817 5.0919 1.68961 5.37851 1.68961Z" fill="#FEFEFE"/>
<path id="Fill-12" fill-rule="evenodd" clip-rule="evenodd" d="M12.1518 15.3691C12.5878 16.4126 13.0238 17.456 13.4599 18.4994C13.5348 18.6788 13.612 18.8573 13.6839 19.0379C13.709 19.1011 13.7531 19.1708 13.6934 19.2368C13.6324 19.3042 13.5628 19.2625 13.4967 19.2412C12.8131 19.0213 12.1282 18.8052 11.4471 18.5779C11.3115 18.5327 11.2559 18.5617 11.1946 18.6876C10.8846 19.3241 10.5641 19.9554 10.2466 20.5883C10.2129 20.6553 10.1911 20.734 10.0903 20.7334C9.98531 20.7327 9.97196 20.646 9.94415 20.5799C9.39412 19.2713 8.84605 17.9619 8.29854 16.6523C8.28075 16.6097 8.27342 16.5628 8.26123 16.518C8.81955 16.3529 9.25985 15.9595 9.78429 15.729C9.95297 15.6549 10.1307 15.6208 10.3151 15.6213C10.5803 15.622 10.8456 15.6148 11.1104 15.6239C11.483 15.6369 11.8357 15.5813 12.1518 15.3691Z" fill="#FCCDD3"/>
<path id="Fill-14" fill-rule="evenodd" clip-rule="evenodd" d="M3.17193 8.02905C3.17193 8.1764 3.1747 8.32378 3.17087 8.47102C3.16867 8.55611 3.18894 8.6017 3.28775 8.59993C3.56444 8.59504 3.84128 8.59897 4.11805 8.59777C4.26908 8.59709 4.34915 8.51122 4.35421 8.36785C4.3619 8.15005 4.36314 7.93159 4.35464 7.7139C4.3489 7.56528 4.27134 7.47466 4.10749 7.47661C3.84252 7.47976 3.57741 7.48097 3.31251 7.47583C3.20311 7.47366 3.16623 7.51752 3.17062 7.6225C3.17625 7.75779 3.17197 7.89351 3.17193 8.02905ZM2.77251 8.57405C2.77251 8.13116 2.77705 7.68823 2.76964 7.24552C2.76745 7.11724 2.79657 7.07112 2.93417 7.07438C3.33515 7.08385 3.73655 7.07704 4.13778 7.07796C4.47722 7.0787 4.73868 7.32 4.75097 7.65646C4.76029 7.91003 4.76057 8.16448 4.75083 8.41802C4.73847 8.73891 4.48714 8.98322 4.16623 8.99106C3.89499 8.99769 3.62315 9.00024 3.35212 8.98968C3.21452 8.98432 3.18214 9.03318 3.18642 9.16198C3.19503 9.42144 3.19333 9.68167 3.18433 9.94116C3.18054 10.051 3.13849 10.1517 3.00198 10.1643C2.89262 10.1743 2.81843 10.1232 2.78208 10.025C2.76649 9.98292 2.77287 9.93187 2.7728 9.88489C2.77227 9.44792 2.77251 9.01098 2.77251 8.57405Z" fill="#6534FF"/>
<path id="Fill-16" fill-rule="evenodd" clip-rule="evenodd" d="M11.7808 8.0358C11.7808 8.18315 11.7847 8.3306 11.7795 8.47774C11.7761 8.57119 11.8135 8.60062 11.9038 8.59927C12.1747 8.59523 12.4456 8.59736 12.7165 8.59786C12.8759 8.59814 12.9591 8.51259 12.9638 8.36017C12.9704 8.14234 12.9727 7.92384 12.9628 7.70626C12.956 7.556 12.871 7.47304 12.7091 7.47581C12.4501 7.4802 12.1908 7.4812 11.9319 7.47506C11.816 7.4723 11.7732 7.51431 11.7791 7.62925C11.7861 7.76444 11.7808 7.90026 11.7808 8.0358ZM11.3814 8.56807C11.3814 8.12522 11.3869 7.68226 11.378 7.23958C11.3753 7.1028 11.4195 7.07181 11.5485 7.07436C11.9496 7.0823 12.3509 7.07642 12.7521 7.07755C13.0887 7.07847 13.349 7.32413 13.3602 7.66144C13.3684 7.9092 13.3679 8.15759 13.3603 8.40534C13.3502 8.73602 13.0996 8.98374 12.7696 8.99086C12.4924 8.99689 12.2149 8.99643 11.9377 8.9903C11.8298 8.98792 11.7934 9.02309 11.7961 9.13155C11.8023 9.38529 11.8018 9.63935 11.7963 9.89317C11.7934 10.0291 11.7663 10.1647 11.5877 10.1627C11.4313 10.1608 11.3795 10.0605 11.3804 9.91434C11.3831 9.46559 11.3814 9.01682 11.3814 8.56807Z" fill="#6534FF"/>
<path id="Fill-18" fill-rule="evenodd" clip-rule="evenodd" d="M7.21169 8.62386C7.20021 8.56657 7.19982 8.50396 7.17537 8.45287C7.03288 8.15512 6.88901 7.85784 6.73652 7.56513C6.67013 7.43768 6.56544 7.43892 6.49848 7.56903C6.35283 7.85196 6.21633 8.13967 6.08082 8.42766C6.01084 8.57635 6.02948 8.727 6.10055 8.87112C6.2283 9.13025 6.35857 9.38814 6.48739 9.64678C6.5169 9.70599 6.54677 9.76906 6.62468 9.76559C6.69164 9.76265 6.72171 9.70794 6.74899 9.65334C6.88355 9.38442 7.0196 9.11625 7.15412 8.84733C7.18887 8.77787 7.20917 8.7042 7.21169 8.62386ZM5.64423 8.62854C5.63481 8.52136 5.64225 8.41897 5.68575 8.32793C5.84844 7.98757 6.001 7.64079 6.18806 7.31405C6.38876 6.96351 6.90265 6.98925 7.08758 7.34691C7.24191 7.64544 7.38717 7.94871 7.53426 8.25092C7.65263 8.4941 7.65344 8.74175 7.53951 8.98524C7.40715 9.26824 7.26579 9.54705 7.12996 9.82845C7.02643 10.0429 6.872 10.175 6.61979 10.1663C6.38019 10.1581 6.22845 10.0336 6.12808 9.8238C6.00344 9.56311 5.87257 9.30536 5.7412 9.048C5.67268 8.9137 5.63031 8.77518 5.64423 8.62854Z" fill="#6534FF"/>
<path id="Fill-20" fill-rule="evenodd" clip-rule="evenodd" d="M9.5286 8.07893C9.5134 8.07929 9.4982 8.0796 9.48297 8.07996C9.42872 8.26393 9.36998 8.44673 9.32155 8.63219C9.28202 8.78369 9.1335 8.98684 9.23653 9.07356C9.33707 9.15815 9.56147 9.09416 9.73146 9.09785C9.80536 9.09948 9.8195 9.0748 9.79782 9.00311C9.70496 8.69601 9.61784 8.38713 9.5286 8.07893ZM10.2799 10.1636C10.1626 10.1658 10.1146 10.0868 10.0845 9.99192C10.0453 9.86847 10.0014 9.74545 9.97662 9.61891C9.95601 9.51386 9.90254 9.48805 9.80536 9.49046C9.59917 9.49564 9.39266 9.49575 9.1865 9.49043C9.09421 9.48802 9.04727 9.52039 9.02449 9.61079C8.9915 9.74194 8.94212 9.86897 8.90935 10.0001C8.87509 10.1373 8.78751 10.1884 8.66028 10.1567C8.51428 10.1203 8.48746 10.003 8.52268 9.87684C8.60817 9.5708 8.70287 9.26735 8.79342 8.96269C8.95941 8.40412 9.1251 7.8455 9.29066 7.28678C9.3162 7.20056 9.34214 7.10767 9.44049 7.08434C9.56084 7.05576 9.66574 7.08356 9.70553 7.22119C9.96369 8.11467 10.2226 9.0079 10.4779 9.90219C10.5198 10.0492 10.4232 10.168 10.2799 10.1636Z" fill="#6534FF"/>
<path id="Fill-22" fill-rule="evenodd" clip-rule="evenodd" d="M3.1721 8.02791C3.17213 7.89237 3.17638 7.75665 3.17075 7.62136C3.16639 7.51638 3.20327 7.47252 3.31268 7.47469C3.57757 7.47983 3.84265 7.47862 4.10762 7.47547C4.27151 7.47352 4.34903 7.56414 4.3548 7.71276C4.36327 7.93045 4.36203 8.14891 4.35434 8.36671C4.34931 8.51008 4.26924 8.59595 4.11821 8.59663C3.84145 8.59783 3.56457 8.5939 3.28791 8.59879C3.18907 8.60056 3.1688 8.55497 3.171 8.46988C3.17486 8.32264 3.1721 8.17526 3.1721 8.02791Z" fill="#FEFEFE"/>
<path id="Fill-24" fill-rule="evenodd" clip-rule="evenodd" d="M11.781 8.03548C11.781 7.89994 11.7863 7.76411 11.7793 7.62893C11.7734 7.51398 11.8162 7.47197 11.9321 7.47474C12.191 7.48087 12.4503 7.47988 12.7093 7.47548C12.8712 7.47272 12.9562 7.55568 12.963 7.70593C12.9729 7.92351 12.9706 8.14202 12.964 8.35985C12.9593 8.51226 12.8761 8.59781 12.7167 8.59753C12.4458 8.59703 12.1749 8.59491 11.9041 8.59895C11.8137 8.6003 11.7763 8.57087 11.7797 8.47741C11.7849 8.33028 11.781 8.18282 11.781 8.03548Z" fill="#FEFEFE"/>
<path id="Fill-26" fill-rule="evenodd" clip-rule="evenodd" d="M7.21149 8.62408C7.20897 8.70442 7.18867 8.77809 7.15391 8.84755C7.01939 9.11647 6.88335 9.38464 6.74879 9.65356C6.72151 9.70816 6.69143 9.76286 6.62447 9.76581C6.54657 9.76928 6.5167 9.70621 6.48719 9.647C6.35837 9.38836 6.2281 9.13047 6.10035 8.87134C6.02928 8.72722 6.01064 8.57657 6.08061 8.42788C6.21613 8.13989 6.35263 7.85218 6.49828 7.56925C6.56524 7.43914 6.66993 7.4379 6.73632 7.56535C6.8888 7.85806 7.03268 8.15534 7.17517 8.45309C7.19962 8.50418 7.20001 8.56679 7.21149 8.62408Z" fill="#FEFEFE"/>
<path id="Fill-28" fill-rule="evenodd" clip-rule="evenodd" d="M9.52898 8.08008C9.61823 8.38828 9.70534 8.69716 9.7982 9.00426C9.81988 9.07595 9.80575 9.10062 9.73184 9.09899C9.56186 9.0953 9.33746 9.1593 9.23691 9.07471C9.13388 8.98798 9.2824 8.78483 9.32194 8.63334C9.37037 8.44788 9.42911 8.26508 9.48335 8.08111C9.49858 8.08075 9.51378 8.08043 9.52898 8.08008Z" fill="#FEFEFE"/>
</g>
</g>
</g>
</g>
</g>
<defs>
<clipPath id="clip0_2194_6722">
<rect width="16.049" height="21.0242" fill="white" transform="translate(0.00634766 0.443359)"/>
</clipPath>
</defs>
</svg>
