<svg width="20" height="20" viewBox="0 0 20 20" fill="none" xmlns="http://www.w3.org/2000/svg">
<g clip-path="url(#clip0_193_6341)">
<path d="M13.8054 13.9746C13.455 14.1871 13.0545 14.3121 12.6164 14.3121C12.3411 14.3121 12.0657 14.2621 11.8029 14.1621C11.3649 14.6996 10.714 15.0121 10.0132 15.0121C9.88801 15.0121 9.76285 14.9871 9.6377 14.9746L11.2147 18.6121C11.3273 18.8621 11.6903 18.8621 11.7904 18.6121L12.6164 16.5246L14.6189 17.3121C14.8818 17.4121 15.1321 17.1496 15.0194 16.8996L13.8054 13.9996V13.9746Z" fill="#8B8EA0"/>
<path fill-rule="evenodd" clip-rule="evenodd" d="M9.14943 1.7C9.56245 1.1 10.4511 1.1 10.8641 1.7C11.1519 2.1125 11.7026 2.2625 12.1657 2.05C12.829 1.75 13.5925 2.1875 13.6551 2.9125C13.7051 3.4125 14.1056 3.8125 14.6063 3.8625C15.3322 3.925 15.7702 4.6875 15.4698 5.35C15.2571 5.8125 15.4073 6.3625 15.8203 6.65C16.421 7.0625 16.421 7.95 15.8203 8.3625C15.4073 8.65 15.2571 9.2 15.4698 9.6625C15.7702 10.325 15.3322 11.0875 14.6063 11.15C14.1056 11.2 13.7051 11.6 13.6551 12.1C13.5925 12.825 12.829 13.2625 12.1657 12.9625C11.7026 12.75 11.1519 12.9 10.8641 13.3125C10.4511 13.9125 9.56245 13.9125 9.14943 13.3125C8.86157 12.9 8.31089 12.75 7.84781 12.9625C7.18448 13.2625 6.42102 12.825 6.35845 12.1C6.30838 11.6 5.90788 11.2 5.40726 11.15C4.68135 11.0875 4.2433 10.325 4.54368 9.6625C4.75644 9.2 4.60626 8.65 4.19324 8.3625C3.59249 7.95 3.59249 7.0625 4.19324 6.65C4.60626 6.3625 4.75644 5.8125 4.54368 5.35C4.2433 4.6875 4.68135 3.925 5.40726 3.8625C5.90788 3.8125 6.30838 3.4125 6.35845 2.9125C6.42102 2.1875 7.18448 1.75 7.84781 2.05C8.31089 2.2625 8.86157 2.1125 9.14943 1.7Z" fill="#8B8EA0"/>
<path d="M7.96063 14.224C7.78541 14.274 7.61019 14.299 7.40994 14.299C6.98441 14.299 6.59642 14.1865 6.2585 13.999L5.057 16.874C4.94436 17.124 5.19467 17.3865 5.4575 17.2865L7.46 16.499L8.28603 18.5865C8.38616 18.849 8.74911 18.849 8.86175 18.5865L9.34986 17.449L7.94811 14.224H7.96063Z" fill="#8B8EA0"/>
</g>
<defs>
<clipPath id="clip0_193_6341">
<rect width="20" height="20" fill="white"/>
</clipPath>
</defs>
</svg>
