<svg width="38" height="38" viewBox="0 0 38 38" fill="none" xmlns="http://www.w3.org/2000/svg">
<g clip-path="url(#clip0_501_6699)">
<path d="M24.6146 15.4816C24.2135 15.2667 23.6979 15.2667 23.2396 15.4816L20.0312 17.2547L17.8542 18.3831L14.7031 20.1562C14.3021 20.3711 13.7865 20.3711 13.3281 20.1562L10.8646 18.7592C10.4635 18.5443 10.1771 18.1144 10.1771 17.6308V14.9443C10.1771 14.5144 10.4062 14.0846 10.8646 13.8159L13.3281 12.4726C13.7292 12.2577 14.2448 12.2577 14.7031 12.4726L17.1667 13.8697C17.5677 14.0846 17.8542 14.5144 17.8542 14.998V16.7711L20.0312 15.5891V13.7622C20.0312 13.3323 19.8021 12.9025 19.3437 12.6338L14.7604 10.1085C14.3594 9.89353 13.8437 9.89353 13.3854 10.1085L8.6875 12.6876C8.22917 12.9025 8 13.3323 8 13.7622V18.8129C8 19.2428 8.22917 19.6726 8.6875 19.9413L13.3281 22.4667C13.7292 22.6816 14.2448 22.6816 14.7031 22.4667L17.8542 20.7473L20.0312 19.5652L23.1823 17.8458C23.5833 17.6308 24.099 17.6308 24.5573 17.8458L27.0208 19.1891C27.4219 19.404 27.7083 19.8338 27.7083 20.3174V23.004C27.7083 23.4338 27.4792 23.8637 27.0208 24.1323L24.6146 25.4756C24.2135 25.6905 23.6979 25.6905 23.2396 25.4756L20.776 24.1323C20.375 23.9174 20.0885 23.4876 20.0885 23.004V21.2846L17.9115 22.4667V24.2398C17.9115 24.6697 18.1406 25.0995 18.599 25.3682L23.2396 27.8935C23.6406 28.1085 24.1562 28.1085 24.6146 27.8935L29.2552 25.3682C29.6562 25.1532 29.9427 24.7234 29.9427 24.2398V19.1353C29.9427 18.7055 29.7135 18.2756 29.2552 18.007L24.6146 15.4816Z" fill="white"/>
</g>
<defs>
<clipPath id="clip0_501_6699">
<rect width="22" height="18" fill="white" transform="translate(8 10)"/>
</clipPath>
</defs>
</svg>
