<svg width="16" height="16" viewBox="0 0 16 16" fill="none" xmlns="http://www.w3.org/2000/svg">
<path d="M8 10C9.10457 10 10 9.10457 10 8C10 6.89543 9.10457 6 8 6C6.89543 6 6 6.89543 6 8C6 9.10457 6.89543 10 8 10Z" stroke="#8B8EA0"/>
<path d="M9.17694 1.43499C8.93187 1.3335 8.62127 1.3335 8 1.3335C7.37874 1.3335 7.06814 1.3335 6.82307 1.43499C6.49638 1.57032 6.23682 1.82988 6.10149 2.15658C6.03972 2.30572 6.01554 2.47916 6.00608 2.73216C5.99218 3.10395 5.80151 3.44809 5.4793 3.63412C5.1571 3.82014 4.76373 3.81319 4.4348 3.63934C4.21097 3.52103 4.04868 3.45524 3.88863 3.43418C3.53803 3.38802 3.18346 3.48302 2.90291 3.6983C2.6925 3.85975 2.53718 4.12876 2.22656 4.66678C1.91593 5.20481 1.76062 5.47382 1.726 5.73677C1.67984 6.08736 1.77485 6.44194 1.99012 6.7225C2.08838 6.85056 2.22647 6.95816 2.4408 7.09283C2.75587 7.29083 2.9586 7.6281 2.95858 8.00016C2.95856 8.37223 2.75584 8.70943 2.44079 8.90736C2.22644 9.0421 2.08832 9.14976 1.99006 9.27783C1.77478 9.55836 1.67978 9.9129 1.72594 10.2635C1.76055 10.5264 1.91586 10.7955 2.22649 11.3335C2.53712 11.8715 2.69244 12.1406 2.90284 12.302C3.18339 12.5172 3.53796 12.6122 3.88856 12.5661C4.0486 12.545 4.21088 12.4792 4.4347 12.361C4.76365 12.1871 5.15704 12.1802 5.47927 12.3662C5.8015 12.5522 5.99218 12.8964 6.00608 13.2682C6.01554 13.5212 6.03972 13.6946 6.10149 13.8438C6.23682 14.1704 6.49638 14.43 6.82307 14.5654C7.06814 14.6668 7.37874 14.6668 8 14.6668C8.62127 14.6668 8.93187 14.6668 9.17694 14.5654C9.5036 14.43 9.7632 14.1704 9.89847 13.8438C9.96027 13.6946 9.98447 13.5212 9.99394 13.2682C10.0078 12.8964 10.1985 12.5522 10.5207 12.3662C10.8429 12.1801 11.2363 12.1871 11.5653 12.361C11.7891 12.4792 11.9513 12.545 12.1113 12.566C12.4619 12.6122 12.8165 12.5172 13.0971 12.302C13.3075 12.1405 13.4628 11.8715 13.7734 11.3334C14.0841 10.7954 14.2394 10.5264 14.274 10.2635C14.3201 9.9129 14.2251 9.5583 14.0099 9.27776C13.9116 9.1497 13.7735 9.04203 13.5591 8.90736C13.2441 8.70943 13.0414 8.37216 13.0414 8.0001C13.0414 7.62803 13.2441 7.2909 13.5591 7.09296C13.7735 6.95823 13.9117 6.85063 14.0099 6.7225C14.2252 6.44198 14.3202 6.08741 14.2741 5.73681C14.2395 5.47386 14.0841 5.20485 13.7735 4.66683C13.4629 4.12881 13.3075 3.8598 13.0971 3.69834C12.8166 3.48307 12.462 3.38806 12.1114 3.43422C11.9514 3.45529 11.7891 3.52107 11.5653 3.63936C11.2363 3.81322 10.8429 3.82018 10.5207 3.63414C10.1985 3.4481 10.0078 3.10394 9.99394 2.73212C9.98447 2.47915 9.96027 2.30572 9.89847 2.15658C9.7632 1.82988 9.5036 1.57032 9.17694 1.43499Z" stroke="#8B8EA0"/>
</svg>
