<svg width="20" height="20" viewBox="0 0 20 20" fill="none" xmlns="http://www.w3.org/2000/svg">
<rect width="20" height="20" fill="#D7D7D7"/>
<g id="Hover state (hover outline showing up with a linear animation)">
<rect width="1440" height="1334" transform="translate(-1073 -286)" fill="#0E0E12"/>
<g id="Group 1057099">
<g id="Frame" clip-path="url(#clip0_188_10858)">
<g id="Group">
<path id="Vector" d="M5.13818 4.8875C4.33818 5.775 4.41318 6.5125 4.61318 7.5875C4.68818 7.9625 4.96318 8.5125 5.30068 9.0625L9.73818 1.6875C9.73818 1.6875 6.15068 4.1875 5.13818 4.8875Z" fill="#8B8EA0"/>
<path id="Vector_2" d="M3.25045 7.85001C3.21295 7.63751 3.17545 7.42501 3.15045 7.20001C2.53795 8.35001 2.36295 10.0625 2.62545 11.4125C2.95045 13.05 3.77545 14.075 4.57545 14.75C5.03795 15.1375 9.75045 18.45 9.75045 18.45C9.75045 18.45 3.51295 9.18751 3.25045 7.85001Z" fill="#8B8EA0"/>
<path id="Vector_3" d="M14.8627 15.2502C15.6627 14.3627 15.5877 13.6252 15.3877 12.5502C15.3127 12.1752 15.0377 11.6252 14.7002 11.0752L10.2627 18.4502C10.2627 18.4502 13.8502 15.9502 14.8627 15.2502Z" fill="#8B8EA0"/>
<path id="Vector_4" d="M16.7505 12.2875C16.788 12.5 16.8255 12.7125 16.8505 12.9375C17.463 11.7875 17.638 10.075 17.3755 8.725C17.0505 7.0875 16.2255 6.0625 15.4255 5.3875C14.963 5 10.2505 1.6875 10.2505 1.6875C10.2505 1.6875 16.488 10.95 16.7505 12.2875Z" fill="#8B8EA0"/>
</g>
</g>
</g>
</g>
<defs>
<clipPath id="clip0_188_10858">
<rect width="20" height="20" fill="white"/>
</clipPath>
</defs>
</svg>
