<svg width="12" height="12" viewBox="0 0 12 12" fill="none" xmlns="http://www.w3.org/2000/svg">
<g id="icon-tiny-line-sort" clip-path="url(#clip0_634_14597)">
<path id="Vector" d="M4.19966 9.66L2.99966 10.56V2.5C2.99966 2.22 2.77966 2 2.49966 2C2.21966 2 1.99966 2.22 1.99966 2.5V10.56L0.799662 9.66C0.579662 9.5 0.269662 9.54 0.0996619 9.76C-0.0703381 9.98 -0.0203381 10.29 0.199662 10.46L2.49966 12.18L4.79966 10.46C5.01966 10.29 5.06966 9.98 4.89966 9.76C4.72966 9.54 4.41966 9.49 4.19966 9.66Z" fill="#8B8EA0"/>
<path id="Vector_2" d="M11.5 2H5.5C5.22 2 5 2.22 5 2.5C5 2.78 5.22 3 5.5 3H11.5C11.78 3 12 2.78 12 2.5C12 2.22 11.78 2 11.5 2Z" fill="#8B8EA0"/>
<path id="Vector_3" d="M10.5 4H5.5C5.22 4 5 4.22 5 4.5C5 4.78 5.22 5 5.5 5H10.5C10.78 5 11 4.78 11 4.5C11 4.22 10.78 4 10.5 4Z" fill="#8B8EA0"/>
<path id="Vector_4" d="M9.5 6H5.5C5.22 6 5 6.22 5 6.5C5 6.78 5.22 7 5.5 7H9.5C9.78 7 10 6.78 10 6.5C10 6.22 9.78 6 9.5 6Z" fill="#8B8EA0"/>
<path id="Vector_5" d="M7.5 8H5.5C5.22 8 5 8.22 5 8.5C5 8.78 5.22 9 5.5 9H7.5C7.78 9 8 8.78 8 8.5C8 8.22 7.78 8 7.5 8Z" fill="#8B8EA0"/>
</g>
<defs>
<clipPath id="clip0_634_14597">
<rect width="12" height="12" fill="white"/>
</clipPath>
</defs>
</svg>
