<svg width="21" height="21" viewBox="0 0 21 21" fill="none" xmlns="http://www.w3.org/2000/svg">
<g id="icon-NFT-metadata" clip-path="url(#clip0_2194_6696)">
<path id="Vector" d="M17.0521 6.15651V12.1883C17.0521 12.8369 16.7043 13.4321 16.1493 13.7531L11.5018 16.4279L10.9267 16.7623C10.3649 17.0832 9.67617 17.0832 9.12114 16.7623L5.81771 14.8564L3.9052 13.7531C3.34348 13.4321 3.00244 12.8369 3.00244 12.1883V6.15651C3.00244 5.51455 3.34348 4.92609 3.9052 4.6051L9.12114 1.58253C9.66949 1.26155 10.3649 1.26155 10.9267 1.58253L16.1426 4.6051C16.6909 4.92609 17.0454 5.51455 17.0454 6.15651H17.0521Z" fill="#E2F7FD"/>
<path id="Vector_2" d="M7.68344 8.38933C8.54764 8.38933 9.24822 7.68875 9.24822 6.82455C9.24822 5.96034 8.54764 5.25977 7.68344 5.25977C6.81923 5.25977 6.11865 5.96034 6.11865 6.82455C6.11865 7.68875 6.81923 8.38933 7.68344 8.38933Z" fill="#3486FF"/>
<path id="Vector_3" d="M11.5086 16.427L10.9335 16.7613C10.3718 17.0823 9.68301 17.0823 9.12798 16.7613L5.82455 14.8555L3.91204 13.7521C3.35032 13.4312 3.00928 12.836 3.00928 12.1874V11.512L4.18621 10.3417C4.51388 10.0007 5.07559 10.0007 5.41664 10.3417L11.5086 16.4337V16.427Z" fill="#A9E8FA"/>
<path id="Vector_4" d="M17.0522 11.9331V12.1805C17.0522 12.8291 16.7045 13.4243 16.1494 13.7453L11.5019 16.4201L10.9268 16.7545C10.3651 17.0754 9.67633 17.0754 9.1213 16.7545L5.81787 14.8486L12.2776 8.40227C12.6187 8.06122 13.1737 8.06122 13.5147 8.40227L17.0455 11.9331H17.0522Z" fill="#80D4FF"/>
<path id="Vector_5" d="M7.00803 17.7246H17.0387C17.2234 17.7246 17.373 17.5749 17.373 17.3903C17.373 17.2056 17.2234 17.0559 17.0387 17.0559H7.00803C6.82337 17.0559 6.67368 17.2056 6.67368 17.3903C6.67368 17.5749 6.82337 17.7246 7.00803 17.7246Z" fill="#3486FF"/>
<path id="Vector_6" d="M2.802 11.707L11.4952 11.707C11.6799 11.707 11.8296 11.5573 11.8296 11.3727C11.8296 11.188 11.6799 11.0383 11.4952 11.0383L2.802 11.0383C2.61734 11.0383 2.46764 11.188 2.46764 11.3727C2.46764 11.5573 2.61734 11.707 2.802 11.707Z" fill="#3486FF"/>
<path id="Vector_7" d="M8.15162 13.7129L15.5074 13.7129C15.6921 13.7129 15.8418 13.5632 15.8418 13.3785C15.8418 13.1939 15.6921 13.0442 15.5074 13.0442H8.15162C7.96697 13.0442 7.81727 13.1939 7.81727 13.3785C7.81727 13.5632 7.96697 13.7129 8.15162 13.7129Z" fill="#3486FF"/>
<path id="Vector_8" d="M4.54737 15.7187L12.5719 15.7188C12.7566 15.7188 12.9062 15.5691 12.9062 15.3844C12.9062 15.1997 12.7566 15.05 12.5719 15.05L4.54737 15.05C4.36271 15.05 4.21301 15.1997 4.21301 15.3844C4.21301 15.5691 4.36271 15.7187 4.54737 15.7187Z" fill="#3486FF"/>
<path id="folder-code" d="M2.38076 12.8102C2.5145 12.944 2.5145 13.1513 2.38076 13.285C2.31389 13.3519 2.22696 13.3853 2.14671 13.3853C2.06646 13.3853 1.97284 13.3519 1.91266 13.285L0.00683594 11.3792L1.91266 9.47335C2.0464 9.33961 2.2537 9.33961 2.38745 9.47335C2.52119 9.6071 2.52119 9.8144 2.38745 9.94814L0.949718 11.3859L2.38745 12.8236L2.38076 12.8102Z" fill="#3486FF"/>
<path id="Vector_9" d="M18.1553 19.2964C18.0884 19.3633 18.0015 19.3967 17.9213 19.3967C17.841 19.3967 17.7474 19.3633 17.6872 19.2964C17.5535 19.1627 17.5535 18.9554 17.6872 18.8216L19.1249 17.3839L17.6872 15.9462C17.5535 15.8124 17.5535 15.6051 17.6872 15.4714C17.821 15.3377 18.0283 15.3377 18.162 15.4714L20.0678 17.3772L18.162 19.2831L18.1553 19.2964Z" fill="#3486FF"/>
</g>
<defs>
<clipPath id="clip0_2194_6696">
<rect width="20.0613" height="20.0613" fill="white" transform="translate(0 0.00390625)"/>
</clipPath>
</defs>
</svg>
