<svg width="20" height="20" viewBox="0 0 20 20" fill="none" xmlns="http://www.w3.org/2000/svg">
<g id="icon-flat-holders" clip-path="url(#clip0_1224_2930)">
<g id="Group">
<path id="Vector" d="M5.64307 9.2627C7.36592 9.2627 8.76417 7.8627 8.76417 6.1377C8.76417 4.4127 7.36592 3.0127 5.64307 3.0127C3.92022 3.0127 2.52197 4.4127 2.52197 6.1377C2.52197 7.8627 3.92022 9.2627 5.64307 9.2627Z" fill="white"/>
<path id="Vector_2" d="M13.7579 10.5127C15.1311 10.5127 16.2547 9.3877 16.2547 8.0127C16.2547 6.6377 15.1311 5.5127 13.7579 5.5127C12.3846 5.5127 11.261 6.6377 11.261 8.0127C11.261 9.3877 12.3846 10.5127 13.7579 10.5127Z" fill="white"/>
<path id="Vector_3" d="M19.9257 15.8008C19.6635 15.2758 19.3514 14.7883 19.0143 14.3633C17.7783 12.7758 16.068 11.8008 14.1828 11.8008C13.1716 11.8008 12.2228 12.1008 11.3489 12.6008C11.5736 12.8383 11.7858 13.0758 11.9981 13.3508C12.41 13.8758 12.7846 14.4633 13.0842 15.0633C13.3464 15.6008 13.3963 16.2133 13.2465 16.7758H19.5137C19.9007 16.7758 20.1254 16.2258 19.9257 15.8008Z" fill="white"/>
<path id="Vector_4" d="M10.6872 14.3496C9.45126 12.7621 7.7409 11.7871 5.85575 11.7871C3.44627 11.7871 1.29895 13.3996 0.100448 15.8246C-0.0993024 16.2371 0.137901 16.7621 0.524917 16.7621H11.1991C11.5861 16.7621 11.8108 16.2121 11.6111 15.7871C11.3489 15.2621 11.0368 14.7746 10.6997 14.3496H10.6872Z" fill="white"/>
</g>
</g>
<defs>
<clipPath id="clip0_1224_2930">
<rect width="20" height="20" fill="white"/>
</clipPath>
</defs>
</svg>
