<svg width="16" height="16" viewBox="0 0 16 16" fill="none" xmlns="http://www.w3.org/2000/svg">
<g id="icon-flat-holders" clip-path="url(#clip0_526_11501)">
<g id="Group">
<path id="Vector" d="M4.51641 7.41016C5.89469 7.41016 7.01329 6.29016 7.01329 4.91016C7.01329 3.53016 5.89469 2.41016 4.51641 2.41016C3.13813 2.41016 2.01953 3.53016 2.01953 4.91016C2.01953 6.29016 3.13813 7.41016 4.51641 7.41016Z" fill="#9597A7"/>
<path id="Vector_2" d="M11.0073 8.41016C12.1059 8.41016 13.0048 7.51016 13.0048 6.41016C13.0048 5.31016 12.1059 4.41016 11.0073 4.41016C9.90864 4.41016 9.00977 5.31016 9.00977 6.41016C9.00977 7.51016 9.90864 8.41016 11.0073 8.41016Z" fill="#9597A7"/>
<path id="Vector_3" d="M15.9415 12.6404C15.7318 12.2204 15.4821 11.8304 15.2124 11.4904C14.2236 10.2204 12.8554 9.44043 11.3472 9.44043C10.5383 9.44043 9.7792 9.68043 9.08008 10.0804C9.25985 10.2704 9.42964 10.4604 9.59943 10.6804C9.92902 11.1004 10.2286 11.5704 10.4683 12.0504C10.6781 12.4804 10.718 12.9704 10.5982 13.4204H15.6119C15.9215 13.4204 16.1013 12.9804 15.9415 12.6404Z" fill="#9597A7"/>
<path id="Vector_4" d="M8.55075 11.4797C7.56198 10.2097 6.19369 9.42969 4.68558 9.42969C2.75799 9.42969 1.04014 10.7197 0.0813349 12.6597C-0.0784654 12.9897 0.111297 13.4097 0.42091 13.4097H8.96024C9.26985 13.4097 9.44962 12.9697 9.28982 12.6297C9.08009 12.2097 8.8304 11.8197 8.56074 11.4797H8.55075Z" fill="#9597A7"/>
</g>
</g>
<defs>
<clipPath id="clip0_526_11501">
<rect width="16" height="16" fill="white"/>
</clipPath>
</defs>
</svg>
