<svg width="16" height="16" fill="none" xmlns="http://www.w3.org/2000/svg">
  <g clip-path="url(#a)">
    <path d="M8.165 2.533 2.229 5.11l6.09 3.126V2.496a.316.316 0 0 0-.154.037Z" fill="#63A5FF"/>
    <path d="M8.475 2.533a.316.316 0 0 0-.155-.037v5.739l6.091-3.126-5.936-2.576Z" fill="#3486FF"/>
    <path opacity=".3" d="m7.023 3.024.662 3.536.48-.48-.57-2.922-.572-.134Z" fill="#2E53A0"/>
    <path d="M7.323.123 6.629.33a.269.269 0 0 0-.191.256v1.525c0 .133.042.256.128.357l.8.966 1.349 4.453 1.077-.325-1.35-4.454.129-1.242a.56.56 0 0 0-.09-.368L7.631.229a.26.26 0 0 0-.304-.106h-.005Z" fill="#80D4FF"/>
    <path d="M10.042 7.669c.09.304.39.48.688.432l1.43 4.65a1.304 1.304 0 1 1-2.496.757l-1.43-4.65a.62.62 0 0 0-.357-1.173l-.24-.784 2.49-.757.24.784a.62.62 0 0 0-.33.74h.005Z" fill="#D9F5FD"/>
    <path opacity=".3" d="m3.115 4.726.672 1.184L6.795 7.45l.336-.368-3.296-2.555-.72.198Z" fill="#2E53A0"/>
    <path d="m13.29 13.28.769-.816-.955-1.675-1.365-.507-6.22-5.85-.767.821 6.219 5.845.592 1.328 1.728.854Z" fill="#80D4FF"/>
    <path d="M4.485 5.29a.617.617 0 0 0-.81-.032L.576 2.314A1.3 1.3 0 0 1 .517.474a1.305 1.305 0 0 1 1.84-.058l3.1 2.944a.614.614 0 0 0 .084.805c.23.213.576.224.811.032l.597.56-1.786 1.899-.598-.56a.614.614 0 0 0-.085-.806h.005ZM11.056 1.11a2.613 2.613 0 0 1 2.01-.764c.165.011.245.208.128.326l-1.312 1.312.427 1.594 1.595.427 1.312-1.312c.117-.117.314-.037.325.128a2.618 2.618 0 0 1-.763 2.01 2.633 2.633 0 0 1-2.71.63l-4.16 4.16-1.637-1.637 4.16-4.16a2.62 2.62 0 0 1 .63-2.71l-.005-.005Z" fill="#D9F5FD"/>
    <path d="M2.23 5.11v7.22c0 .4.219.774.57.966l4.465 2.437c.33.182.688.267 1.05.267V8.235l-6.09-3.126h.005Z" fill="#3486FF"/>
    <path d="M8.32 8.235V16c.362 0 .725-.09 1.05-.267l4.465-2.437c.351-.192.57-.56.57-.965V5.109l-6.09 3.126h.005Z" fill="#83B7FF"/>
    <path d="m14.395 5.11 1.29 1.872c.283.4.155.95-.266 1.19l-4.357 2.474A.826.826 0 0 1 10 10.432L8.3 8.23l6.09-3.126.006.006Z" fill="#C3DCFF"/>
    <path d="M2.229 5.11.939 6.982c-.283.4-.155.95.266 1.19l4.357 2.474a.826.826 0 0 0 1.062-.214l1.7-2.202-6.09-3.126-.005.006Z" fill="#83B7FF"/>
  </g>
  <defs>
    <clipPath id="a">
      <path fill="#fff" d="M0 0h16v16H0z"/>
    </clipPath>
  </defs>
</svg>