<svg width="19" height="19" viewBox="0 0 19 19" fill="none" xmlns="http://www.w3.org/2000/svg">
<path opacity="0.5" fill-rule="evenodd" clip-rule="evenodd" d="M9.05063 18.652C14.0492 18.652 18.1013 14.5999 18.1013 9.60141C18.1013 4.60289 14.0492 0.550781 9.05063 0.550781C4.05211 0.550781 0 4.60289 0 9.60141C0 14.5999 4.05211 18.652 9.05063 18.652ZM9.07382 4.26379C6.11315 4.26379 3.71305 6.6535 3.71305 9.60135C3.71305 12.5492 6.11315 14.9389 9.07382 14.9389C9.4864 14.9389 9.82573 14.9056 10.2458 14.8118L9.99049 13.6449C9.6953 13.7108 9.39115 13.7374 9.07382 13.7374C6.77962 13.7374 4.91981 11.8856 4.91981 9.60135C4.91981 7.31708 6.77962 5.46532 9.07382 5.46532C11.3699 5.46532 13.1894 7.29752 13.1814 9.57823C13.1794 10.1675 13.0651 10.5721 12.5548 11.0802C12.0907 11.5423 11.3713 11.5307 10.9768 11.1033C10.5823 10.6758 9.86287 9.57823 9.86287 9.57823L11.3713 7.38314H9.71199L9.06224 8.51535L8.40082 7.38314H6.75314L8.21517 9.57815L6.70673 11.808H8.30799L9.05061 10.6758C9.10686 10.7532 9.16453 10.8345 9.22382 10.9181C9.58636 11.4292 10.0092 12.0254 10.5359 12.3279C11.3945 12.8016 12.5647 12.7083 13.251 12.0737C14.0633 11.3228 14.3882 10.5256 14.3882 9.57823C14.3186 6.60908 12.0326 4.26379 9.07382 4.26379Z" fill="#8B8EA0"/>
</svg>
