<svg width="14" height="15" viewBox="0 0 14 15" fill="none" xmlns="http://www.w3.org/2000/svg">
<path id="Vector" d="M0 7.03062C0 3.14772 3.14764 0 7.03045 0C10.9107 0 13.9087 3.08921 14 7.00017C14 8.24805 13.5739 9.29805 12.5087 10.2872C11.6086 11.1231 10.0739 11.2459 8.94793 10.622C8.14423 10.1584 7.52486 9.17104 7 8.44587L6.02609 9.93721H3.9261L5.90436 7.00006L3.98696 4.1088H6.14782L7.01525 5.60015L7.86737 4.1088H10.0435L8.06525 7.00017C8.06525 7.00017 9.00872 8.44587 9.52609 9.00894C10.0435 9.57202 10.987 9.58721 11.5956 8.9785C12.2649 8.30923 12.4147 7.77632 12.4174 7.00017C12.4279 3.99602 10.0417 1.58265 7.03045 1.58265C4.02169 1.58265 1.58261 4.02179 1.58261 7.03062C1.58261 10.0394 4.02169 12.4786 7.03045 12.4786C7.44661 12.4786 7.84549 12.4436 8.23263 12.3568L8.56743 13.8939C8.01655 14.0174 7.57152 14.0612 7.03045 14.0612C3.14764 14.0612 0 10.9135 0 7.03062Z" fill="#8B8EA0"/>
</svg>
